<?xml version="1.0" encoding="utf-8"?>
<!-- Generator: Adobe Illustrator 25.0.0, SVG Export Plug-In . SVG Version: 6.00 Build 0)  -->
<svg version="1.1" id="Layer_1" xmlns="http://www.w3.org/2000/svg" xmlns:xlink="http://www.w3.org/1999/xlink" x="0px" y="0px"
	 viewBox="0 0 303 290" style="enable-background:new 0 0 303 290;" xml:space="preserve">
<style type="text/css">
	.st0{fill:#F1F0F4;}
	.st1{fill:none;stroke:#FFFFFF;stroke-width:3;stroke-miterlimit:10;}
	.st2{fill-rule:evenodd;clip-rule:evenodd;fill:#F7E8E7;}
</style>
<g id="Group_651" transform="translate(608.867 -348.497) rotate(90)">
	<g id="Group_637" transform="translate(629.301 407.939)">
		<path id="Path_90" class="st0" d="M0.1,93.68V5.02c0-2.6,2.11-4.7,4.71-4.69c2.59,0,4.69,2.1,4.69,4.69v88.66
			c0,2.6-2.1,4.7-4.69,4.71c-2.6,0-4.7-2.1-4.71-4.69C0.1,93.69,0.1,93.68,0.1,93.68z"/>
	</g>
	<g id="Group_638" transform="translate(488.879 532.258)">
		<path id="Path_91" class="st0" d="M0.1,72.23V5.03c0-2.6,2.11-4.7,4.71-4.69c2.59,0,4.69,2.1,4.69,4.69v67.21
			c0,2.6-2.11,4.7-4.71,4.69C2.21,76.93,0.11,74.83,0.1,72.23z"/>
	</g>
	<g id="Group_639" transform="translate(488.879 305.066)">
		<path id="Path_92" class="st0" d="M0.1,72.23V5.03c0-2.6,2.11-4.7,4.71-4.69c2.59,0,4.69,2.1,4.69,4.69v67.21
			c0,2.6-2.11,4.7-4.71,4.69C2.21,76.93,0.11,74.83,0.1,72.23z"/>
	</g>
	<g id="Group_640" transform="translate(559.092 490.619)">
		<path id="Path_93" class="st0" d="M0.1,89.53V5.02c0-2.6,2.11-4.7,4.71-4.69c2.59,0,4.69,2.1,4.69,4.69v84.51
			c0,2.6-2.11,4.7-4.71,4.69C2.21,94.22,0.11,92.12,0.1,89.53z"/>
	</g>
	<g id="Group_641" transform="translate(559.092 329.411)">
		<path id="Path_94" class="st0" d="M0.1,89.53V5.03c0-2.6,2.1-4.7,4.69-4.71c2.6,0,4.7,2.1,4.71,4.69c0,0,0,0.01,0,0.01v84.5
			c0,2.6-2.1,4.7-4.69,4.71c-2.6,0-4.7-2.1-4.71-4.69C0.1,89.54,0.1,89.54,0.1,89.53z"/>
	</g>
	<g id="Group_642" transform="translate(594.205 359.563)">
		<path id="Path_95" class="st0" d="M0.1,190.43V5.02c0-2.6,2.11-4.7,4.71-4.69c2.59,0,4.69,2.1,4.69,4.69v185.41
			c0,2.6-2.1,4.7-4.69,4.71c-2.6,0-4.7-2.1-4.71-4.69C0.1,190.44,0.1,190.44,0.1,190.43z"/>
	</g>
	<g id="Group_643" transform="translate(524.028 524.083)">
		<path id="Path_96" class="st0" d="M0.1,74.03v-69c0-2.6,2.11-4.7,4.71-4.69c2.59,0,4.69,2.1,4.69,4.69v69c0,2.6-2.1,4.7-4.69,4.71
			c-2.6,0-4.7-2.1-4.71-4.69C0.1,74.03,0.1,74.03,0.1,74.03z"/>
	</g>
	<g id="Group_644" transform="translate(524.028 311.461)">
		<path id="Path_97" class="st0" d="M0.1,74.02v-69c0-2.6,2.11-4.7,4.71-4.69c2.59,0,4.69,2.1,4.69,4.69v69
			c0,2.6-2.11,4.7-4.71,4.69C2.21,78.71,0.11,76.61,0.1,74.02z"/>
	</g>
	<g id="Group_645" transform="translate(348.497 407.939)">
		<path id="Path_98" class="st0" d="M0.11,93.68V5.02c0-2.6,2.11-4.7,4.71-4.69c2.59,0,4.69,2.1,4.69,4.69v88.66
			c0,2.6-2.11,4.7-4.71,4.69C2.21,98.37,0.11,96.27,0.11,93.68z"/>
	</g>
	<g id="Group_646" transform="translate(418.656 490.619)">
		<path id="Path_99" class="st0" d="M0.1,89.53V5.02c0-2.6,2.11-4.7,4.71-4.69c2.59,0,4.69,2.1,4.69,4.69v84.51
			c0,2.6-2.11,4.7-4.71,4.69C2.21,94.22,0.11,92.12,0.1,89.53z"/>
	</g>
	<g id="Group_647" transform="translate(418.656 329.411)">
		<path id="Path_100" class="st0" d="M0.1,89.53V5.03c0-2.6,2.11-4.7,4.71-4.69c2.59,0,4.69,2.1,4.69,4.69v84.5
			c0,2.6-2.11,4.7-4.71,4.69C2.21,94.22,0.11,92.12,0.1,89.53z"/>
	</g>
	<g id="Group_648" transform="translate(383.601 359.563)">
		<path id="Path_101" class="st0" d="M0.1,190.43V5.02c0-2.6,2.11-4.7,4.71-4.69c2.59,0,4.69,2.1,4.69,4.69v185.41
			c0,2.6-2.1,4.7-4.69,4.71c-2.6,0-4.7-2.1-4.71-4.69C0.1,190.44,0.1,190.44,0.1,190.43z"/>
	</g>
	<g id="Group_649" transform="translate(453.815 524.178)">
		<path id="Path_102" class="st0" d="M0.1,73.93V5.03c0-2.6,2.1-4.7,4.69-4.71c2.6,0,4.7,2.1,4.71,4.69c0,0,0,0.01,0,0.01v68.9
			c0,2.6-2.1,4.7-4.69,4.71c-2.6,0-4.7-2.1-4.71-4.69C0.1,73.94,0.1,73.93,0.1,73.93z"/>
	</g>
	<g id="Group_650" transform="translate(453.815 311.461)">
		<path id="Path_103" class="st0" d="M0.1,73.92V5.02c0-2.6,2.11-4.7,4.71-4.69c2.59,0,4.69,2.1,4.69,4.69v68.9
			c0,2.6-2.11,4.7-4.71,4.69C2.21,78.62,0.11,76.52,0.1,73.92z"/>
	</g>
</g>
</svg>
