<?xml version="1.0" encoding="utf-8"?>
<!-- Generator: Adobe Illustrator 25.0.1, SVG Export Plug-In . SVG Version: 6.00 Build 0)  -->
<svg version="1.1" xmlns="http://www.w3.org/2000/svg" xmlns:xlink="http://www.w3.org/1999/xlink" x="0px" y="0px"
	 viewBox="0 0 1350 330" style="enable-background:new 0 0 1350 330;" xml:space="preserve">
<style type="text/css">
	.st0{display:none;}
	.st1{display:inline;fill:#F16338;}
	.st2{fill:#F06437;}
</style>
<g id="Original_G" class="st0">
</g>
<g id="Layer_1">
	<g>
		<path class="st2" d="M729.95,86.3l-65.9,154.63h36.1l10.48-26.08h71.03l10.48,26.08h37.03L763.25,86.3H729.95z M722.27,185.27
			l23.52-59.38h0.47l23.75,59.38H722.27z M466.1,86.3h34.7v154.63h-34.7v-62.41h-68.7v62.41h-34.47V86.3h34.47v61.48h68.7V86.3z
			 M533.87,86.3h115.74v30.74h-81.27v31.9h64.51v28.88h-64.51v32.37h81.27v30.74H533.87V86.3z M1239.73,83.97
			c-47.74,0-81.27,33.07-81.27,79.64c0,46.57,33.54,79.64,81.27,79.64c47.74,0,81.27-33.07,81.27-79.64
			C1321,117.04,1287.46,83.97,1239.73,83.97z M1239.73,212.52c-27.48,0-46.34-20.03-46.34-48.9c0-28.88,18.86-48.9,46.34-48.9
			c27.48,0,46.34,20.03,46.34,48.9C1286.07,192.49,1267.2,212.52,1239.73,212.52z M1081.6,83.97c23.05,0,40.06,3.73,54.72,12.11
			v37.73h-1.63c-13.51-13.04-30.74-19.1-51.7-19.1c-31.9,0-52.63,19.1-52.63,48.9s20.73,48.9,52.63,48.9c7.22,0,13.74-0.7,20.03-2.1
			v-26.32h-34v-28.88h67.3v75.92c-14.67,8.39-31.67,12.11-54.72,12.11c-52.63,0-86.16-30.97-86.16-79.64S1028.97,83.97,1081.6,83.97
			z M976.8,136.84c0-33.3-19.79-50.53-58.45-50.53h-69.4v154.63h34.47v-53.79h26.08l31.44,53.79h40.52l-37.03-57.29
			C965.86,177.36,976.8,161.52,976.8,136.84z M916.96,156.4h-33.53v-39.36h33.53c17,0,24.92,6.29,24.92,19.79
			C941.87,150.11,933.95,156.4,916.96,156.4z"/>
		<path class="st2" d="M162.74,31.35C88.88,31.35,29,91.19,29,165c0,73.81,59.88,133.65,133.74,133.65S296.49,238.81,296.49,165
			C296.49,91.19,236.61,31.35,162.74,31.35z M190.91,186.34l-17.64,30.4c0,0,0,0,0,0c-4.09,7.04-13.12,9.43-20.17,5.34c0,0,0,0,0,0
			c-7.05-4.09-9.44-13.11-5.35-20.15l12.5-21.5c3.01-5.25,1.23-11.95-3.99-15.02c-5.27-3.1-12.05-1.35-15.15,3.92l-27.64,47.41
			c0,0,0,0,0,0c-4.09,7.04-13.12,9.43-20.17,5.34c0,0,0,0,0,0c-7.05-4.09-9.44-13.11-5.35-20.15l66.01-113.44c0,0,0,0,0-0.01
			c4.09-7.04,13.12-9.43,20.16-5.34c0,0,0,0,0,0c7.05,4.09,9.44,13.11,5.35,20.15l-20.87,35.9c-0.02,0.04-0.05,0.08-0.07,0.12
			c-3.04,5.3-1.2,12.06,4.11,15.09c5.31,3.03,12.07,1.2,15.1-4.1l3.27-5.62c4.09-7.04,13.12-9.43,20.17-5.35
			c7.04,4.1,9.42,13.11,5.33,20.15L198.08,174L190.91,186.34z M220.72,223.64c-9.11,0-16.49-7.38-16.49-16.48
			c0-9.1,7.38-16.48,16.49-16.48c9.11,0,16.49,7.38,16.49,16.48C237.21,216.26,229.83,223.64,220.72,223.64z"/>
	</g>
</g>
</svg>
