<?xml version="1.0" encoding="UTF-8" standalone="no"?>
<svg
   xmlns:dc="http://purl.org/dc/elements/1.1/"
   xmlns:cc="http://creativecommons.org/ns#"
   xmlns:rdf="http://www.w3.org/1999/02/22-rdf-syntax-ns#"
   xmlns:svg="http://www.w3.org/2000/svg"
   xmlns="http://www.w3.org/2000/svg"
   xmlns:sodipodi="http://sodipodi.sourceforge.net/DTD/sodipodi-0.dtd"
   xmlns:inkscape="http://www.inkscape.org/namespaces/inkscape"
   version="1.1"
   x="0px"
   y="0px"
   viewBox="0 0 958.07001 159.28"
   xml:space="preserve"
   id="svg112"
   sodipodi:docname="logo_name.svg"
   inkscape:version="1.0.1 (c497b03c, 2020-09-10)"
   width="958.07001"
   height="159.28"><metadata
   id="metadata118"><rdf:RDF><cc:Work
       rdf:about=""><dc:format>image/svg+xml</dc:format><dc:type
         rdf:resource="http://purl.org/dc/dcmitype/StillImage" /><dc:title /></cc:Work></rdf:RDF></metadata><defs
   id="defs116" /><sodipodi:namedview
   pagecolor="#ffffff"
   bordercolor="#666666"
   borderopacity="1"
   objecttolerance="10"
   gridtolerance="10"
   guidetolerance="10"
   inkscape:pageopacity="0"
   inkscape:pageshadow="2"
   inkscape:window-width="1920"
   inkscape:window-height="1080"
   id="namedview114"
   showgrid="false"
   inkscape:zoom="0.67178595"
   inkscape:cx="453.53056"
   inkscape:cy="89.265113"
   inkscape:window-x="1440"
   inkscape:window-y="0"
   inkscape:window-maximized="0"
   inkscape:current-layer="svg112"
   inkscape:document-rotation="0" />
<style
   type="text/css"
   id="style102">
	.st0{display:none;}
	.st1{display:inline;fill:#F16338;}
	.st2{fill:#F06437;}
</style>
<g
   id="Original_G"
   class="st0"
   transform="translate(-195.965,-74.514747)">
</g>
<g
   id="Layer_1"
   transform="translate(-362.93,-83.97)">
	<g
   id="g109">
		<path
   class="st2"
   d="m 729.95,86.3 -65.9,154.63 h 36.1 l 10.48,-26.08 h 71.03 l 10.48,26.08 h 37.03 L 763.25,86.3 Z m -7.68,98.97 23.52,-59.38 h 0.47 l 23.75,59.38 z M 466.1,86.3 h 34.7 v 154.63 h -34.7 v -62.41 h -68.7 v 62.41 H 362.93 V 86.3 h 34.47 v 61.48 h 68.7 V 86.3 Z m 67.77,0 h 115.74 v 30.74 h -81.27 v 31.9 h 64.51 v 28.88 h -64.51 v 32.37 h 81.27 v 30.74 H 533.87 Z m 705.86,-2.33 c -47.74,0 -81.27,33.07 -81.27,79.64 0,46.57 33.54,79.64 81.27,79.64 47.74,0 81.27,-33.07 81.27,-79.64 0,-46.57 -33.54,-79.64 -81.27,-79.64 z m 0,128.55 c -27.48,0 -46.34,-20.03 -46.34,-48.9 0,-28.88 18.86,-48.9 46.34,-48.9 27.48,0 46.34,20.03 46.34,48.9 0,28.87 -18.87,48.9 -46.34,48.9 z M 1081.6,83.97 c 23.05,0 40.06,3.73 54.72,12.11 v 37.73 h -1.63 c -13.51,-13.04 -30.74,-19.1 -51.7,-19.1 -31.9,0 -52.63,19.1 -52.63,48.9 0,29.8 20.73,48.9 52.63,48.9 7.22,0 13.74,-0.7 20.03,-2.1 v -26.32 h -34 v -28.88 h 67.3 v 75.92 c -14.67,8.39 -31.67,12.11 -54.72,12.11 -52.63,0 -86.16,-30.97 -86.16,-79.64 0,-48.67 33.53,-79.63 86.16,-79.63 z m -104.8,52.87 c 0,-33.3 -19.79,-50.53 -58.45,-50.53 h -69.4 v 154.63 h 34.47 v -53.79 h 26.08 l 31.44,53.79 h 40.52 l -37.03,-57.29 c 21.43,-6.29 32.37,-22.13 32.37,-46.81 z m -59.84,19.56 h -33.53 v -39.36 h 33.53 c 17,0 24.92,6.29 24.92,19.79 -0.01,13.28 -7.93,19.57 -24.92,19.57 z"
   id="path105" />
		
	</g>
</g>
</svg>
