<?xml version="1.0" encoding="utf-8"?>
<!-- Generator: Adobe Illustrator 25.0.0, SVG Export Plug-In . SVG Version: 6.00 Build 0)  -->
<svg version="1.1" id="Layer_1" xmlns="http://www.w3.org/2000/svg" xmlns:xlink="http://www.w3.org/1999/xlink" x="0px" y="0px"
	 viewBox="0 0 94.01 79.2" style="enable-background:new 0 0 94.01 79.2;" xml:space="preserve">
<style type="text/css">
	.st0{fill:#F16338;}
	.st1{fill:none;}
</style>
<g id="Group_821" transform="translate(-0.894 -15.135)">
	<path id="Path_134" class="st0" d="M93.09,63.75l-3.28-3.27c-1.95-1.94-4.94-2.36-7.35-1.05l-6.18-6.17l0.3-0.3
		c2.51-2.51,2.51-6.58,0-9.09c-0.88-0.89-2.01-1.49-3.23-1.75c0.17-0.59,0.26-1.19,0.26-1.81c0-3.04-2.13-5.67-5.11-6.29
		c0.17-0.59,0.26-1.19,0.26-1.81c0-3.04-2.13-5.67-5.11-6.29c1-3.4-0.94-6.97-4.34-7.98c-0.82-0.24-1.68-0.32-2.52-0.22l-12.24-2.32
		c-1.87-0.35-4.2-0.59-5.67,0.75c-0.1,0.09-0.19,0.19-0.28,0.29c-2.35-0.86-4.99-0.28-6.77,1.49c-1.21,1.2-1.89,2.84-1.88,4.55
		c0,0.61,0.09,1.22,0.25,1.81c-2.98,0.62-5.11,3.25-5.11,6.29c0,0.61,0.09,1.22,0.26,1.81c-3.48,0.73-5.7,4.14-4.97,7.62
		c0.17,0.83,0.51,1.61,0.99,2.31c-3.36,1.14-5.16,4.8-4.01,8.16c0.32,0.93,0.85,1.78,1.54,2.48l0.3,0.3L13,59.43
		c-2.36-1.11-5.17-0.63-7.02,1.22L2.7,63.91c-2.41,2.42-2.41,6.33,0,8.75l4.1,4.09c0.72,0.72,1.9,0.72,2.62,0
		c0.72-0.72,0.72-1.9,0-2.62l0,0l-4.09-4.09c-0.96-0.97-0.96-2.53,0-3.5l3.28-3.27c0.81-0.8,2.05-0.95,3.03-0.37
		c0.07,0.1,0.15,0.2,0.23,0.29c0.15,0.15,0.33,0.28,0.53,0.37l18.81,18.78c0.18,0.4,0.5,0.72,0.89,0.9c0.86,0.98,0.82,2.46-0.1,3.39
		l-3.28,3.27c-0.97,0.96-2.54,0.96-3.51,0l-4.09-4.09c-0.72-0.72-1.9-0.72-2.62,0s-0.72,1.9,0,2.62l4.1,4.1
		c2.42,2.4,6.33,2.4,8.75,0l3.28-3.27c2.04-2.04,2.4-5.22,0.87-7.66l6.95-6.94l0.02-0.02c0.8-0.82,3.01-0.67,5.16-0.52
		c1.62,0.16,3.26,0.17,4.88,0.03l7.61,7.6c-1.31,2.41-0.89,5.4,1.05,7.35l3.28,3.27c2.42,2.41,6.33,2.41,8.75,0L93.1,72.49
		c2.41-2.42,2.41-6.33,0-8.75L93.09,63.75z M43.85,19.06l8.05,1.53l-4.82,4.82c-1.06-0.55-2.04-1.26-2.89-2.1
		c-1.53-1.47-2.63-3.16-2.73-4.22l0,0l0,0c-0.01-0.06-0.01-0.12-0.01-0.18C42.25,18.8,43.07,18.85,43.85,19.06L43.85,19.06z
		 M34.44,20.57c0.93-0.92,2.38-1.06,3.46-0.33c0.6,2.52,2.76,4.81,3.72,5.74c1.5,1.5,3.33,2.64,5.35,3.31
		c0.86,1.23,0.55,2.93-0.68,3.79c-1.08,0.75-2.55,0.62-3.48-0.31l0,0l-8.37-8.35C33.38,23.35,33.38,21.64,34.44,20.57L34.44,20.57z
		 M29.59,28.67c1.07-1.06,2.79-1.06,3.86,0l6.74,6.72c1.06,1.07,1.05,2.8-0.03,3.86c-1.06,1.05-2.77,1.05-3.83,0l0,0l-5.11-5.11
		l-0.02-0.02l-1.6-1.6C28.53,31.45,28.53,29.73,29.59,28.67L29.59,28.67z M24.73,36.77c1.06-1.05,2.77-1.06,3.84-0.01l5.13,5.12
		c1.06,1.07,1.06,2.79-0.01,3.85c-1.07,1.06-2.79,1.06-3.85-0.01l0,0l-1.86-1.86l0,0l-3.25-3.25
		C23.67,39.55,23.67,37.83,24.73,36.77L24.73,36.77z M21.5,46.49c1.07-1.06,2.79-1.06,3.86,0l1.86,1.86
		c1.06,1.07,1.06,2.79-0.01,3.85c-1.07,1.06-2.79,1.06-3.85-0.01l-0.23-0.23l-0.01-0.01l-0.01-0.01l-1.61-1.6
		C20.44,49.27,20.44,47.55,21.5,46.49L21.5,46.49z M59.31,67.57c-0.72-0.72-1.9-0.72-2.62,0c0,0,0,0,0,0l-1.65,1.65
		c-1.57,1.57-4.41,1.37-7.16,1.18c-2.99-0.21-6.07-0.42-8.07,1.63l-6.83,6.83L15.89,61.79l6.05-6.04c3.03,1.86,6.99,0.9,8.85-2.13
		c0.62-1.01,0.95-2.17,0.95-3.36c0-0.02,0-0.03,0-0.05h0.05c3.54,0.01,6.42-2.86,6.43-6.4c0-0.01,0-0.01,0-0.02
		c0-0.02,0-0.03,0-0.05h0.05c3.54,0.01,6.42-2.85,6.43-6.39c0-0.03,0-0.06,0-0.08h0.05c3.55,0,6.43-2.89,6.43-6.44
		c0-1.18-0.33-2.33-0.94-3.34l5.3-5.3c0.38-0.38,0.87-0.64,1.39-0.74c0.06-0.01,0.11-0.01,0.16-0.03c1.49-0.21,2.87,0.82,3.08,2.3
		c0.12,0.85-0.16,1.71-0.77,2.31l-1.62,1.61l-0.02,0.01l-1.86,1.86c-0.73,0.72-0.73,1.9,0,2.62s1.9,0.73,2.62,0l1.62-1.62l0,0
		l0.24-0.24c1.07-1.06,2.79-1.05,3.85,0.01c1.06,1.06,1.06,2.78,0,3.85l-1.62,1.63l0,0l-1.86,1.85c-0.73,0.72-0.73,1.9-0.01,2.62
		c0.72,0.73,1.9,0.73,2.62,0l0,0l1.87-1.86c1.06-1.06,2.79-1.07,3.85,0s1.07,2.79,0,3.85l-3.24,3.24c-0.72,0.72-0.72,1.9,0,2.62
		c0.72,0.72,1.9,0.72,2.62,0l1.59-1.59l0.03-0.03c1.06-1.06,2.79-1.07,3.85,0s1.07,2.79,0,3.85l-1.61,1.61l0,0l0,0l-2.56,2.56
		c-0.71,0.74-0.68,1.92,0.06,2.62c0.72,0.68,1.84,0.68,2.56,0l1.25-1.25l6,5.99L62.57,78.94l-6.12-6.12
		c0.44-0.28,0.85-0.61,1.22-0.98l1.65-1.65C60.04,69.48,60.04,68.3,59.31,67.57C59.31,67.58,59.31,67.58,59.31,67.57L59.31,67.57z
		 M90.46,69.87L70.58,89.74c-0.97,0.96-2.54,0.96-3.51,0l-3.28-3.27c-0.96-0.97-0.96-2.53,0-3.5L83.68,63.1
		c0.97-0.96,2.54-0.96,3.51,0l3.28,3.27C91.42,67.34,91.42,68.9,90.46,69.87L90.46,69.87z"/>
	<path id="Path_137" class="st0" d="M12.31,79.82c-0.72,0.73-0.71,1.9,0.02,2.62c0,0,0,0,0,0l0.01,0.01
		c0.73,0.72,1.91,0.7,2.62-0.03s0.7-1.91-0.03-2.62C14.19,79.07,13.02,79.09,12.31,79.82L12.31,79.82z"/>
	<path id="Path_138" class="st0" d="M63.85,64.9c1.03,0,1.86-0.83,1.86-1.85c0-1.03-0.83-1.86-1.85-1.86c-0.29,0-0.58,0.07-0.84,0.2
		l-0.01,0.01c-0.91,0.46-1.28,1.58-0.82,2.49C62.51,64.51,63.15,64.91,63.85,64.9L63.85,64.9z"/>
</g>
</svg>
