<?xml version="1.0" encoding="utf-8"?>
<!-- Generator: Adobe Illustrator 25.0.0, SVG Export Plug-In . SVG Version: 6.00 Build 0)  -->
<svg version="1.1" id="Layer_1" xmlns="http://www.w3.org/2000/svg" xmlns:xlink="http://www.w3.org/1999/xlink" x="0px" y="0px"
	 viewBox="0 0 73.01 73" style="enable-background:new 0 0 73.01 73;" xml:space="preserve">
<style type="text/css">
	.st0{fill:#F16338;}
	.st1{fill:none;}
</style>
<g>
	<path id="Path_140" class="st0" d="M43.65,10.51c-2.13-3.15-4.97-5.75-8.3-7.59C31.83,0.99,27.88-0.02,23.87,0
		C10.69,0.02,0.01,10.69,0,23.87v32.06h5.7v2.69C5.7,66.56,12.14,73,20.09,73c5.87,0,11.15-3.57,13.34-9.01l12.58-31.21
		c1.52-3.72,2.06-7.76,1.58-11.74C47.13,17.27,45.78,13.66,43.65,10.51L43.65,10.51z M4.28,28.86h6.07
		c6.29-0.18,11.54,4.78,11.72,11.08c0.18,6.29-4.78,11.54-11.08,11.72c-0.21,0.01-0.43,0.01-0.64,0H4.28V28.86z M12.83,23.87
		c0-1.83,0.45-3.63,1.33-5.24c0.12,0,0.23-0.01,0.35-0.01c4.78,0,8.65,3.87,8.65,8.65c0,1.09-0.2,2.17-0.6,3.18
		c-2.43-3.03-5.9-5.05-9.73-5.67L12.83,23.87z M42.04,31.19L29.47,62.4c-2.09,5.18-7.98,7.68-13.15,5.6
		c-3.83-1.54-6.33-5.25-6.33-9.38v-2.69h0.36c8.66,0,15.67-7.02,15.67-15.67c0-1.87-0.33-3.72-0.98-5.47
		c4.15-5.81,2.81-13.89-3-18.04c-1.31-0.94-2.79-1.62-4.35-2.02c5.04-3.42,11.9-2.1,15.32,2.95c2.06,3.04,2.47,6.9,1.1,10.31
		l-3.76,9.32l3.97,1.6l3.76-9.33c3.16-7.84-0.64-16.76-8.48-19.92c-1.82-0.73-3.76-1.11-5.72-1.11c-8.45,0.01-15.3,6.86-15.31,15.31
		v0.71H4.28v-0.71C4.29,13.05,13.05,4.29,23.87,4.28c3.29-0.02,6.54,0.81,9.42,2.39c5.54,3.07,9.28,8.6,10.05,14.89
		C43.74,24.82,43.29,28.14,42.04,31.19L42.04,31.19z"/>
	<path id="Path_141" class="st0" d="M62.31,10.69l-3.02,3.03c12.58,12.58,12.58,32.99,0,45.57l3.02,3.03
		C76.57,48.06,76.57,24.95,62.31,10.69C62.32,10.69,62.32,10.69,62.31,10.69z"/>
	<path id="Path_142" class="st0" d="M54.75,18.25l-3.02,3.02c8.39,8.41,8.39,22.03,0,30.45l3.02,3.02
		C64.82,44.67,64.82,28.34,54.75,18.25L54.75,18.25z"/>
</g>
</svg>
