<?xml version="1.0" encoding="utf-8"?>
<!-- Generator: Adobe Illustrator 25.0.0, SVG Export Plug-In . SVG Version: 6.00 Build 0)  -->
<svg version="1.1" id="Layer_1" xmlns="http://www.w3.org/2000/svg" xmlns:xlink="http://www.w3.org/1999/xlink" x="0px" y="0px"
	 viewBox="0 0 74.58 74.51" style="enable-background:new 0 0 74.58 74.51;" xml:space="preserve">
<style type="text/css">
	.st0{fill:#F16338;}
	.st1{fill:none;}
</style>
<g>
	<path class="st1" d="M52.49,47.21H40.82c-1.24,0.03-2.23,1.05-2.23,2.31c-0.01,1.25,0.99,2.26,2.23,2.27h12.03c0,0,0,0,0,0
		c2.05,0,3.72,1.67,3.72,3.72c0,0.99-0.39,1.93-1.09,2.63s-1.64,1.09-2.63,1.09H40.82c-3.6-0.01-6.9-2.03-8.56-5.2h-1.25
		c-4.15-0.09-8.03-1.76-10.94-4.7L9.76,39.24c-0.42-0.41-0.97-0.64-1.55-0.64c0,0,0,0-0.01,0c-0.61,0-1.18,0.25-1.58,0.66
		c-0.86,0.88-0.85,2.29,0.03,3.15l13.4,13.18c4.9,4.79,11.37,7.43,18.22,7.34h23.96c0.63,0,1.26,0.16,1.81,0.47l4.56,2.55V53.23
		l-5.88-3.8C59.42,47.3,57.07,47.21,52.49,47.21z"/>
	<path class="st0" d="M43.83,30.43h-2.97c-0.41,0-0.73,0.33-0.73,0.73v2.97c0,0.4,0.33,0.73,0.73,0.73h2.97
		c0.4,0,0.73-0.33,0.73-0.73v-2.97c0-0.2-0.08-0.38-0.21-0.52C44.21,30.51,44.02,30.43,43.83,30.43L43.83,30.43z"/>
	<path class="st0" d="M43.83,20.04h-2.97c-0.41,0-0.73,0.33-0.73,0.73v2.97c0,0.4,0.33,0.73,0.73,0.73h2.97
		c0.2,0,0.38-0.08,0.52-0.21c0.14-0.14,0.21-0.32,0.21-0.52v-2.97C44.56,20.37,44.23,20.04,43.83,20.04z"/>
	<path class="st0" d="M3.48,27.08L37.29,4.88l14.52,9.58c0.36,0.24,0.78,0.36,1.22,0.36c0,0,0,0,0,0c1.22,0,2.22-0.99,2.22-2.22
		V7.26h7.44v26.43c0,1.22,1,2.22,2.22,2.22c0,0,0,0,0,0c0.59,0,1.15-0.23,1.57-0.65c0.42-0.42,0.65-0.98,0.65-1.57v-9.18l4,2.58
		c1.09,0.68,2.46,0.37,3.11-0.66c0.65-1.04,0.34-2.41-0.7-3.06l-6.42-4.14V5.04c0-1.22-1-2.22-2.22-2.22H53.03
		c-1.22,0-2.22,1-2.22,2.22v3.44L38.52,0.37c-0.74-0.49-1.7-0.49-2.44,0L1.04,23.38c-0.5,0.33-0.83,0.82-0.96,1.4
		s-0.01,1.17,0.32,1.67C1.08,27.47,2.46,27.76,3.48,27.08z"/>
	<path class="st0" d="M33.58,20.04h-2.97c-0.41,0-0.73,0.33-0.73,0.73v2.97c0,0.4,0.33,0.73,0.73,0.73h2.97
		c0.41,0,0.73-0.33,0.73-0.73v-2.97C34.32,20.37,33.99,20.04,33.58,20.04z"/>
	<path class="st0" d="M33.58,29.68l0,0.75h-2.97c-0.41,0-0.73,0.33-0.73,0.73v2.97c0,0.4,0.33,0.73,0.73,0.73h2.97
		c0.41,0,0.73-0.33,0.73-0.73v-2.97c0-0.4-0.33-0.73-0.73-0.73V29.68z"/>
	<path class="st0" d="M73.53,49.34l-7.58-4.9c-4.59-2.95-8.31-3.17-13.46-3.17H40.82c-3.77,0.02-7.03,2.59-7.92,6.26l-0.14,0.57
		h-1.75c-2.6-0.09-5-1.15-6.79-3L13.92,35l0.44-0.61l-0.52,0.54c-3.23-3.13-8.4-3.06-11.54,0.17c-1.52,1.56-2.34,3.63-2.3,5.8
		c0.03,2.18,0.91,4.22,2.48,5.73l13.4,13.18c6.02,5.89,13.95,9.13,22.39,9.04h23.19h0.2l9.59,5.36c0.33,0.18,0.7,0.28,1.08,0.28
		c1.22,0,2.22-1,2.22-2.22V51.21C74.54,50.45,74.17,49.75,73.53,49.34z M70.11,68.51l-6.79-3.8c-0.33-0.18-0.7-0.28-1.08-0.28H38.27
		c-0.07,0-0.15,0-0.22,0c-7.16,0-13.92-2.75-19.06-7.77L5.59,43.48c-1.46-1.44-1.48-3.8-0.05-5.26c0.68-0.7,1.64-1.11,2.62-1.11
		c0,0,0.01,0,0.01,0c1.01,0,1.94,0.38,2.63,1.07l10.31,10.1c2.64,2.67,6.16,4.18,9.9,4.26h2.19l0.2,0.44
		c1.32,2.89,4.23,4.76,7.41,4.76h12.04c0.59,0,1.15-0.23,1.57-0.65c0.42-0.42,0.65-0.98,0.65-1.57s-0.23-1.15-0.65-1.57
		s-0.98-0.65-1.57-0.65c0,0,0,0,0,0H40.82c-2.07-0.02-3.74-1.71-3.73-3.78c0-2.07,1.63-3.75,3.71-3.81h11.69
		c4.62,0,7.41,0.11,11.06,2.46l6.4,4.19l0.16,0.21V68.51z"/>
</g>
</svg>
