<svg xmlns="http://www.w3.org/2000/svg" width="29.971" height="29.5" viewBox="0 0 29.971 29.5"><g transform="translate(-362.681 -778.139)"><path d="M14.985,0A14.869,14.869,0,0,1,29.971,14.75,14.869,14.869,0,0,1,14.985,29.5,14.869,14.869,0,0,1,0,14.75,14.869,14.869,0,0,1,14.985,0Z" transform="translate(362.681 778.139)" fill="#fff"/><path d="M381.577,792.58l-5.207-5.207a.434.434,0,0,0-.613.614l4.9,4.9-4.9,4.9a.434.434,0,0,0,.613.614l5.207-5.207A.434.434,0,0,0,381.577,792.58Z" fill="#f16338" stroke="#f16338" stroke-miterlimit="10" stroke-width="1"/></g></svg>