<?xml version="1.0" encoding="utf-8"?>
<!-- Generator: Adobe Illustrator 25.0.0, SVG Export Plug-In . SVG Version: 6.00 Build 0)  -->
<svg version="1.1" id="Layer_1" xmlns="http://www.w3.org/2000/svg" xmlns:xlink="http://www.w3.org/1999/xlink" x="0px" y="0px"
	 viewBox="0 0 49.03 53.91" style="enable-background:new 0 0 49.03 53.91;" xml:space="preserve">
<style type="text/css">
	.st0{fill:#F16338;}
	.st1{fill:none;stroke:#F16338;stroke-width:2;stroke-linecap:round;stroke-linejoin:round;}
	.st2{fill:none;stroke:#FBFBFB;stroke-width:2;stroke-miterlimit:10;}
	.st3{opacity:0.5;fill:none;stroke:#FFFFFF;stroke-width:2;stroke-miterlimit:10;enable-background:new    ;}
	.st4{opacity:0.15;fill:none;stroke:#FFFFFF;stroke-width:2;stroke-miterlimit:10;enable-background:new    ;}
	.st5{fill:none;stroke:#F16338;}
	.st6{fill:none;stroke:#F16338;stroke-width:1.5;stroke-linecap:round;stroke-linejoin:round;}
	.st7{fill:#F16338;stroke:#F16338;stroke-width:0.5;}
</style>
<g id="Group_863" transform="translate(-23.136)">
	<path id="Path_144" class="st0" d="M67.19,39.12l-0.06-0.07c-2.96-3.48-7-5.89-11.47-6.84c2.38-1.7,4.17-4.09,5.15-6.84h3.61
		c2.03,0,3.67-1.64,3.67-3.67v-1.09C68.09,9.23,58.87,0,47.48,0S26.87,9.23,26.87,20.61c0,0,0,0,0,0v1.09
		c0,2.03,1.64,3.67,3.67,3.67h3.48c0.99,2.8,2.83,5.22,5.27,6.92c-4.33,1-8.23,3.37-11.11,6.76l-0.06,0.07
		c-3.21,3.65-4.98,8.35-4.98,13.2v1.58h49.03v-1.58C72.17,47.46,70.4,42.77,67.19,39.12z M47.42,31.68c-4.26,0-8.14-2.46-9.97-6.31
		h7.92V22.2h-8.88c-0.86-6.03,3.34-11.62,9.37-12.48s11.62,3.34,12.48,9.37c0.86,6.03-3.34,11.62-9.37,12.48
		C48.46,31.64,47.94,31.68,47.42,31.68z M64.92,21.7c0,0.28-0.22,0.5-0.5,0.5h-2.89c0.12-1.05,0.11-2.12-0.01-3.17h3.32
		c0.05,0.52,0.07,1.05,0.07,1.59V21.7z M47.48,3.17c7.8,0.01,14.64,5.19,16.78,12.68h-3.48C58.15,8.47,50.02,4.63,42.64,7.27
		c-4.01,1.43-7.16,4.58-8.59,8.59H30.7C32.84,8.36,39.69,3.18,47.48,3.17z M30.54,22.2c-0.28,0-0.5-0.22-0.5-0.5v-1.09
		c0-0.53,0.03-1.06,0.07-1.58h3.19c-0.12,1.05-0.12,2.12,0,3.17H30.54z M26.38,50.74c0.35-3.55,1.81-6.89,4.16-9.57l0.06-0.07
		c3.43-3.99,8.44-6.26,13.7-6.21h6.71c5.26-0.05,10.27,2.22,13.7,6.21l0.06,0.07c2.35,2.68,3.8,6.03,4.16,9.57H26.38z"/>
</g>
</svg>
