<?xml version="1.0" encoding="utf-8"?>
<!-- Generator: Adobe Illustrator 25.0.0, SVG Export Plug-In . SVG Version: 6.00 Build 0)  -->
<svg version="1.1" id="Layer_1" xmlns="http://www.w3.org/2000/svg" xmlns:xlink="http://www.w3.org/1999/xlink" x="0px" y="0px"
	 viewBox="0 0 24.53 24.54" style="enable-background:new 0 0 24.53 24.54;" xml:space="preserve">
<style type="text/css">
	.st0{fill:#F16338;}
	.st1{fill:none;stroke:#F16338;stroke-width:2;stroke-linecap:round;stroke-linejoin:round;}
	.st2{fill:none;stroke:#FBFBFB;stroke-width:2;stroke-miterlimit:10;}
	.st3{opacity:0.5;fill:none;stroke:#FFFFFF;stroke-width:2;stroke-miterlimit:10;enable-background:new    ;}
	.st4{opacity:0.15;fill:none;stroke:#FFFFFF;stroke-width:2;stroke-miterlimit:10;enable-background:new    ;}
	.st5{fill:none;stroke:#F16338;}
	.st6{fill:none;stroke:#F16338;stroke-width:1.5;stroke-linecap:round;stroke-linejoin:round;}
	.st7{fill:#F16338;stroke:#F16338;stroke-width:0.5;}
</style>
<g id="Group_847" transform="translate(0 -3)">
	<g id="Group_684" transform="translate(0 3)">
		<path id="Path_88" class="st0" d="M20.94,15.87c-1.31-1.32-2.91-2.32-4.66-2.92c3.23-2.22,4.05-6.63,1.84-9.86
			s-6.63-4.05-9.86-1.84S4.2,7.88,6.42,11.11c0.49,0.72,1.12,1.34,1.84,1.84C3.32,14.66,0,19.31,0,24.54h1.92
			c-0.08-5.72,4.49-10.41,10.21-10.49s10.41,4.49,10.49,10.21c0,0.1,0,0.19,0,0.29h1.92C24.54,21.29,23.25,18.16,20.94,15.87z
			 M12.27,12.27c-2.86,0-5.18-2.32-5.18-5.18s2.32-5.18,5.18-5.18c2.86,0,5.18,2.32,5.18,5.18v0C17.44,9.95,15.13,12.27,12.27,12.27
			z"/>
	</g>
</g>
</svg>
