<?xml version="1.0" encoding="utf-8"?>
<!-- Generator: Adobe Illustrator 25.0.0, SVG Export Plug-In . SVG Version: 6.00 Build 0)  -->
<svg version="1.1" id="Layer_1" xmlns="http://www.w3.org/2000/svg" xmlns:xlink="http://www.w3.org/1999/xlink" x="0px" y="0px"
	 viewBox="0 0 18.69 28.83" style="enable-background:new 0 0 18.69 28.83;" xml:space="preserve">
<style type="text/css">
	.st0{fill:#F16338;}
	.st1{fill:none;stroke:#F16338;stroke-width:2;stroke-linecap:round;stroke-linejoin:round;}
	.st2{fill:none;stroke:#FBFBFB;stroke-width:2;stroke-miterlimit:10;}
	.st3{opacity:0.5;fill:none;stroke:#FFFFFF;stroke-width:2;stroke-miterlimit:10;enable-background:new    ;}
	.st4{opacity:0.15;fill:none;stroke:#FFFFFF;stroke-width:2;stroke-miterlimit:10;enable-background:new    ;}
	.st5{fill:none;stroke:#F16338;}
	.st6{fill:none;stroke:#F16338;stroke-width:1.5;stroke-linecap:round;stroke-linejoin:round;}
	.st7{fill:#F16338;stroke:#F16338;stroke-width:0.5;}
</style>
<path class="st7" d="M17.08,4.11c-0.83-1.23-1.95-2.25-3.25-2.97C12.47,0.39,10.94,0,9.38,0C9.37,0,9.35,0,9.34,0
	C4.2,0.01,0.01,4.2,0,9.34v12.63h2.29v1.33c0,3.05,2.48,5.53,5.53,5.53c2.27,0,4.28-1.36,5.13-3.46L18,12.83
	c0.59-1.45,0.81-3.04,0.62-4.59C18.44,6.76,17.91,5.34,17.08,4.11l0.21-0.14l0,0L17.08,4.11z M1.22,20.75v-9.66h2.69
	c0.02,0,0.05,0,0.07,0c2.63,0,4.78,2.12,4.82,4.76c0.04,2.66-2.09,4.86-4.76,4.9c-0.02,0-0.05,0-0.07,0s-0.05,0-0.07,0H1.22z
	 M4.66,9.92V9.34c0-0.77,0.2-1.54,0.56-2.22l0.07-0.13h0.29c2.05,0,3.73,1.67,3.73,3.73c0,0.47-0.09,0.93-0.26,1.37l-0.16,0.4
	l-0.27-0.34c-0.94-1.18-2.27-1.96-3.75-2.2L4.66,9.92z M17.41,8.38c0.16,1.34-0.02,2.7-0.52,3.95l-0.02,0.05l-5.05,12.53
	c-0.43,1.07-1.25,1.9-2.31,2.36c-0.54,0.23-1.11,0.35-1.69,0.35c-0.54,0-1.09-0.11-1.61-0.32c-1.64-0.66-2.7-2.23-2.7-4v-1.33h0.4
	c1.62,0,3.13-0.63,4.28-1.78c1.14-1.14,1.77-2.66,1.77-4.28c0-0.72-0.13-1.42-0.38-2.1l-0.05-0.12l0.08-0.11
	c1.58-2.22,1.07-5.31-1.15-6.9C7.95,6.32,7.39,6.06,6.79,5.91L6.25,5.78l0.46-0.31c2.13-1.45,5.05-0.9,6.5,1.24
	c0.88,1.29,1.06,2.93,0.47,4.39l-1.42,3.51l1.13,0.46l1.42-3.51c0.59-1.46,0.57-3.07-0.04-4.52C14.15,5.58,13,4.45,11.54,3.86
	c-0.7-0.28-1.45-0.43-2.2-0.43c-3.25,0-5.9,2.65-5.9,5.9v0.54H1.22V9.34c0-4.47,3.65-8.12,8.12-8.12c0.01,0,0.03,0,0.04,0
	c1.35,0,2.68,0.34,3.86,0.99C15.53,3.48,17.09,5.78,17.41,8.38z"/>
</svg>
