<?xml version="1.0" encoding="utf-8"?>
<!-- Generator: Adobe Illustrator 25.0.0, SVG Export Plug-In . SVG Version: 6.00 Build 0)  -->
<svg version="1.1" id="Layer_1" xmlns="http://www.w3.org/2000/svg" xmlns:xlink="http://www.w3.org/1999/xlink" x="0px" y="0px"
	 viewBox="0 0 32.43 59.86" style="enable-background:new 0 0 32.43 59.86;" xml:space="preserve">
<style type="text/css">
	.st0{fill:#F16338;}
	.st1{fill:none;stroke:#F16338;stroke-width:2;stroke-linecap:round;stroke-linejoin:round;}
	.st2{fill:none;stroke:#FBFBFB;stroke-width:2;stroke-miterlimit:10;}
	.st3{opacity:0.5;fill:none;stroke:#FFFFFF;stroke-width:2;stroke-miterlimit:10;enable-background:new    ;}
	.st4{opacity:0.15;fill:none;stroke:#FFFFFF;stroke-width:2;stroke-miterlimit:10;enable-background:new    ;}
	.st5{fill:none;stroke:#F16338;}
	.st6{fill:none;stroke:#F16338;stroke-width:1.5;stroke-linecap:round;stroke-linejoin:round;}
	.st7{fill:#F16338;stroke:#F16338;stroke-width:0.5;}
</style>
<path id="Path_115" class="st0" d="M16.22,59.86c-0.69,0-1.25-0.56-1.25-1.25V32.77L2.1,44.57C1.59,45.04,0.8,45,0.33,44.5
	c-0.47-0.51-0.43-1.3,0.08-1.76l13.96-12.8L0.4,17.14c-0.51-0.47-0.54-1.25-0.08-1.76c0.47-0.51,1.25-0.54,1.76-0.08l0,0l12.88,11.8
	V1.25c0-0.69,0.55-1.25,1.24-1.25c0.34,0,0.66,0.13,0.9,0.37l14.96,14.97c0.49,0.49,0.49,1.28,0,1.76c0,0,0,0,0,0l-0.04,0.04
	l-13.96,12.8l13.97,12.8c0.51,0.47,0.54,1.25,0.08,1.76c0,0,0,0,0,0l-0.04,0.04L17.1,59.5C16.87,59.73,16.55,59.87,16.22,59.86z
	 M17.46,32.77v22.83l11.91-11.91L17.46,32.77z M17.46,4.26V27.1l11.91-10.92L17.46,4.26z"/>
</svg>
