<?xml version="1.0" encoding="utf-8"?>
<!-- Generator: Adobe Illustrator 25.0.0, SVG Export Plug-In . SVG Version: 6.00 Build 0)  -->
<svg version="1.1" id="Layer_1" xmlns="http://www.w3.org/2000/svg" xmlns:xlink="http://www.w3.org/1999/xlink" x="0px" y="0px"
	 viewBox="0 0 35.81 62.15" style="enable-background:new 0 0 35.81 62.15;" xml:space="preserve">
<style type="text/css">
	.st0{fill:#F16338;}
	.st1{fill:none;stroke:#F16338;stroke-width:2;stroke-linecap:round;stroke-linejoin:round;}
	.st2{fill:none;stroke:#FBFBFB;stroke-width:2;stroke-miterlimit:10;}
	.st3{opacity:0.5;fill:none;stroke:#FFFFFF;stroke-width:2;stroke-miterlimit:10;enable-background:new    ;}
	.st4{opacity:0.15;fill:none;stroke:#FFFFFF;stroke-width:2;stroke-miterlimit:10;enable-background:new    ;}
	.st5{fill:none;stroke:#F16338;}
	.st6{fill:none;stroke:#F16338;stroke-width:1.5;stroke-linecap:round;stroke-linejoin:round;}
	.st7{fill:#F16338;stroke:#F16338;stroke-width:0.5;}
</style>
<g id="Group_823" transform="translate(-56.783 -1340)">
	<g id="Group_822" transform="translate(945 1340)">
		<g id="Group_815" transform="translate(0)">
			<g id="Group_814">
				<path id="Path_128" class="st0" d="M-856.96,0h-26.71c-2.51,0-4.55,2.04-4.55,4.55V57.6c0,2.51,2.04,4.55,4.55,4.55h26.71
					c2.51,0,4.55-2.04,4.55-4.55V4.55C-852.41,2.04-854.44,0-856.96,0z M-854.23,49.41h-25.8c-0.5,0-0.91,0.41-0.91,0.91
					s0.41,0.91,0.91,0.91l0,0h25.8v6.37c0,1.51-1.22,2.73-2.73,2.73h-26.71c-1.51,0-2.73-1.22-2.73-2.73v-6.37h2.73
					c0.5,0,0.91-0.41,0.91-0.91s-0.41-0.91-0.91-0.91h-2.73V9.1h32.17V49.41z M-854.23,7.28h-32.17V4.55c0-1.51,1.22-2.73,2.73-2.73
					h26.71c1.51,0,2.73,1.22,2.73,2.73V7.28z"/>
			</g>
		</g>
		<g id="Group_817" transform="translate(16.996 3.642)">
			<g id="Group_816">
				<path id="Path_129" class="st0" d="M-883.66,0h-3.64c-0.5,0-0.91,0.41-0.91,0.91s0.41,0.91,0.91,0.91h3.64
					c0.5,0,0.91-0.41,0.91-0.91S-883.16,0-883.66,0z"/>
			</g>
		</g>
		<g id="Group_819" transform="translate(15.175 53.051)">
			<g id="Group_818">
				<path id="Path_130" class="st0" d="M-885.49,0c-1.51,0-2.73,1.22-2.73,2.73c0,1.51,1.22,2.73,2.73,2.73
					c1.51,0,2.73-1.22,2.73-2.73l0,0C-882.76,1.22-883.98,0-885.49,0z M-885.49,3.64c-0.5,0-0.91-0.41-0.91-0.91
					c0-0.5,0.41-0.91,0.91-0.91c0.5,0,0.91,0.41,0.91,0.91C-884.58,3.23-884.98,3.64-885.49,3.64z"/>
			</g>
		</g>
		<g id="Group_821" transform="translate(13.676 3.392)">
			<g id="Group_820" transform="translate(0 0)">
				<ellipse id="Ellipse_77" class="st0" cx="-887.61" cy="1.02" rx="0.5" ry="1"/>
			</g>
		</g>
	</g>
</g>
</svg>
