<?xml version="1.0" encoding="utf-8"?>
<!-- Generator: Adobe Illustrator 25.0.0, SVG Export Plug-In . SVG Version: 6.00 Build 0)  -->
<svg version="1.1" id="Layer_1" xmlns="http://www.w3.org/2000/svg" xmlns:xlink="http://www.w3.org/1999/xlink" x="0px" y="0px"
	 viewBox="0 0 24.66 24.66" style="enable-background:new 0 0 24.66 24.66;" xml:space="preserve">
<style type="text/css">
	.st0{fill:#F16338;}
	.st1{fill:none;stroke:#F16338;stroke-width:2;stroke-linecap:round;stroke-linejoin:round;}
	.st2{fill:none;stroke:#FBFBFB;stroke-width:2;stroke-miterlimit:10;}
	.st3{opacity:0.5;fill:none;stroke:#FFFFFF;stroke-width:2;stroke-miterlimit:10;enable-background:new    ;}
	.st4{opacity:0.15;fill:none;stroke:#FFFFFF;stroke-width:2;stroke-miterlimit:10;enable-background:new    ;}
	.st5{fill:none;stroke:#F16338;}
	.st6{fill:none;stroke:#F16338;stroke-width:1.5;stroke-linecap:round;stroke-linejoin:round;}
	.st7{fill:#F16338;stroke:#F16338;stroke-width:0.5;}
</style>
<g id="Group_851" transform="translate(0 0.064)">
	<path id="Path_134_1_" class="st7" d="M19.01,8.15c0.28,0,0.51,0.23,0.51,0.51c0,0.28-0.22,0.51-0.5,0.51c0,0-0.01,0-0.01,0H6.9
		L6.38,8.67L6.9,8.15H19.01z"/>
	<path id="Path_135_1_" class="st7" d="M18.76,16.38h-0.99l0.51-0.51l-0.51-0.51h0.99c0.28,0,0.51,0.23,0.51,0.51
		c0,0.28-0.22,0.51-0.5,0.51C18.76,16.38,18.76,16.38,18.76,16.38z"/>
	<path id="Path_136_1_" class="st7" d="M18.28,15.87l-0.51,0.51H5.65c-0.28,0-0.51-0.22-0.51-0.5c0,0,0-0.01,0-0.01
		c0-0.28,0.23-0.51,0.51-0.51h12.12L18.28,15.87z"/>
	<path id="Path_137_1_" class="st7" d="M19.37,15.51c0.2,0.2,0.21,0.52,0.01,0.72c0,0-0.01,0.01-0.01,0.01l-3.08,3.08
		c-0.2,0.2-0.53,0.2-0.72-0.01c-0.2-0.2-0.2-0.53,0.01-0.72l0,0l2.2-2.21h0.99c0.28,0,0.51-0.22,0.51-0.5c0,0,0-0.01,0-0.01
		c0-0.28-0.23-0.51-0.51-0.51h-0.99l-2.2-2.2c-0.2-0.2-0.21-0.52-0.01-0.72c0,0,0.01-0.01,0.01-0.01c0.2-0.19,0.52-0.19,0.72,0
		L19.37,15.51z"/>
	<path id="Path_138_1_" class="st7" d="M6.89,8.15L6.38,8.67l0.51,0.51H5.91c-0.28,0-0.51-0.22-0.51-0.5c0,0,0-0.01,0-0.01
		c0-0.28,0.23-0.51,0.51-0.51H6.89z"/>
	<path id="Path_139_1_" class="st7" d="M5.29,8.31l3.08-3.08c0.2-0.19,0.52-0.19,0.72,0c0.2,0.2,0.21,0.52,0.01,0.72
		c0,0-0.01,0.01-0.01,0.01l-2.2,2.2H5.91c-0.28,0-0.51,0.23-0.51,0.51c0,0.28,0.22,0.51,0.5,0.51c0,0,0.01,0,0.01,0H6.9l2.2,2.21
		c0.2,0.2,0.2,0.52,0.01,0.72s-0.52,0.2-0.72,0.01l0,0L5.29,9.04c-0.2-0.2-0.21-0.52-0.01-0.72C5.29,8.32,5.29,8.32,5.29,8.31
		L5.29,8.31z"/>
	<path id="Path_140_1_" class="st7" d="M0,12.27C0,5.46,5.52-0.06,12.33-0.06s12.33,5.52,12.33,12.33S19.14,24.6,12.33,24.6
		C5.52,24.59,0.01,19.08,0,12.27z M1.03,12.27c0,6.24,5.06,11.3,11.3,11.3s11.3-5.06,11.3-11.3s-5.06-11.3-11.3-11.3
		C6.09,0.97,1.03,6.03,1.03,12.27z"/>
</g>
</svg>
