<?xml version="1.0" encoding="utf-8"?>
<!-- Generator: Adobe Illustrator 25.0.0, SVG Export Plug-In . SVG Version: 6.00 Build 0)  -->
<svg version="1.1" id="Layer_1" xmlns="http://www.w3.org/2000/svg" xmlns:xlink="http://www.w3.org/1999/xlink" x="0px" y="0px"
	 viewBox="0 0 78.79 54.74" style="enable-background:new 0 0 78.79 54.74;" xml:space="preserve">
<style type="text/css">
	.st0{fill:#F16338;}
	.st1{fill:none;stroke:#F16338;stroke-width:2;stroke-linecap:round;stroke-linejoin:round;}
	.st2{fill:none;stroke:#FBFBFB;stroke-width:2;stroke-miterlimit:10;}
	.st3{opacity:0.5;fill:none;stroke:#FFFFFF;stroke-width:2;stroke-miterlimit:10;enable-background:new    ;}
	.st4{opacity:0.15;fill:none;stroke:#FFFFFF;stroke-width:2;stroke-miterlimit:10;enable-background:new    ;}
	.st5{fill:none;stroke:#F16338;}
	.st6{fill:none;stroke:#F16338;stroke-width:1.5;stroke-linecap:round;stroke-linejoin:round;}
	.st7{fill:#F16338;stroke:#F16338;stroke-width:0.5;}
</style>
<g id="Group_813" transform="translate(-271.858 -1033.589)">
	<g id="Group_812" transform="translate(556 1039)">
		<g id="Group_809" transform="translate(18.455 0.882)">
			<path id="Path_116" class="st1" d="M-278.9,8.53c1.33-7.25,6.57-12.94,15.45-12.94c8.9,0,14.15,5.72,15.46,12.99"/>
			<g id="Group_808" transform="translate(0 12.808)">
				<path id="Path_117" class="st1" d="M-276.89,9.43L-276.89,9.43l1.19-13.81l0,0c-3.76-0.32-7.08,2.46-7.4,6.22l-0.02,0.18
					C-283.44,5.79-280.65,9.1-276.89,9.43z"/>
				<path id="Path_118" class="st1" d="M-249.59,9.43L-249.59,9.43l-1.19-13.81l0,0c3.76-0.32,7.08,2.46,7.4,6.22l0.02,0.18
					C-243.04,5.79-245.82,9.1-249.59,9.43z"/>
			</g>
		</g>
		<path id="Path_119" class="st1" d="M-221.38,48.33c-4.88-6.01-13.5-10-23.32-10s-18.44,3.99-23.32,10"/>
		<g id="Group_810" transform="translate(63.764 0)">
			<path id="Path_120" class="st1" d="M-271.68,11.03c-6.73-0.42-11.85-6.22-11.43-12.95c0.05-0.84,0.19-1.68,0.42-2.49"/>
			<path id="Path_121" class="st1" d="M-270.91,6.4c-4.18,0.01-7.57-3.37-7.58-7.55c0-0.85,0.14-1.69,0.42-2.49"/>
			<path id="Path_122" class="st1" d="M-270.11,1.61c-1.54,0.45-3.15-0.44-3.59-1.98c-0.24-0.85-0.09-1.76,0.41-2.48"/>
		</g>
		<g id="Group_811" transform="translate(0 0)">
			<path id="Path_123" class="st1" d="M-281.57,11.03c6.73-0.42,11.85-6.22,11.43-12.95c-0.05-0.84-0.19-1.68-0.42-2.49"/>
			<path id="Path_124" class="st1" d="M-282.34,6.4c4.18,0.01,7.57-3.37,7.58-7.55c0-0.85-0.14-1.69-0.42-2.49"/>
			<path id="Path_125" class="st1" d="M-283.14,1.61c1.54,0.45,3.15-0.44,3.59-1.98c0.24-0.85,0.09-1.76-0.41-2.48"/>
		</g>
		<path id="Path_126" class="st1" d="M-257.03,9.86c3.91-6.76,12.57-9.08,19.34-5.16c2.24,1.29,4.07,3.17,5.32,5.44"/>
		<path id="Path_127" class="st1" d="M-231.44,21.65c-2.6,7.37-10.69,11.23-18.06,8.63c-4.1-1.45-7.3-4.7-8.7-8.81"/>
	</g>
</g>
</svg>
