<?xml version="1.0" encoding="utf-8"?>
<!-- Generator: Adobe Illustrator 25.0.0, SVG Export Plug-In . SVG Version: 6.00 Build 0)  -->
<svg version="1.1" id="Layer_1" xmlns="http://www.w3.org/2000/svg" xmlns:xlink="http://www.w3.org/1999/xlink" x="0px" y="0px"
	 viewBox="0 0 40.5 37.97" style="enable-background:new 0 0 40.5 37.97;" xml:space="preserve">
<style type="text/css">
	.st0{fill:#F16338;}
	.st1{fill:none;stroke:#F16338;stroke-width:2;stroke-linecap:round;stroke-linejoin:round;}
	.st2{fill:none;stroke:#FBFBFB;stroke-width:2;stroke-miterlimit:10;}
	.st3{opacity:0.5;fill:none;stroke:#FFFFFF;stroke-width:2;stroke-miterlimit:10;enable-background:new    ;}
	.st4{opacity:0.15;fill:none;stroke:#FFFFFF;stroke-width:2;stroke-miterlimit:10;enable-background:new    ;}
	.st5{fill:none;stroke:#F16338;}
	.st6{fill:none;stroke:#F16338;stroke-width:1.5;stroke-linecap:round;stroke-linejoin:round;}
	.st7{fill:#F16338;stroke:#F16338;stroke-width:0.5;}
</style>
<g id="Group_859" transform="translate(0 -16)">
	<path id="Path_94" class="st0" d="M35.28,16H5.22C2.34,16,0,18.34,0,21.22v27.53c0,2.88,2.34,5.22,5.22,5.22h26.42
		c1.55,0,3.04-0.61,4.14-1.71l3.01-3.01c1.1-1.09,1.72-2.58,1.71-4.14V21.22C40.5,18.34,38.16,16,35.28,16z M5.22,18.53h30.06
		c1.48,0,2.69,1.2,2.69,2.69v3.64H2.53v-3.64C2.53,19.74,3.74,18.53,5.22,18.53z M2.53,48.75V27.39h35.44v16.45h-3.96
		c-2.01,0-3.64,1.63-3.64,3.64v3.96H5.22C3.74,51.44,2.53,50.23,2.53,48.75z M37,47.46l-3.01,3.01c-0.31,0.31-0.68,0.56-1.08,0.72
		v-3.71c0-0.61,0.5-1.11,1.11-1.11h3.7C37.55,46.78,37.31,47.15,37,47.46z"/>
	<path id="Path_95" class="st0" d="M31.64,32.45c0-0.7-0.57-1.27-1.26-1.27H10.13c-0.7-0.02-1.28,0.53-1.3,1.23
		c-0.02,0.7,0.53,1.28,1.23,1.3c0.02,0,0.05,0,0.07,0h20.25C31.07,33.72,31.64,33.15,31.64,32.45z"/>
	<path id="Path_96" class="st0" d="M27.84,37.52H12.66c-0.7-0.02-1.28,0.53-1.3,1.23c-0.02,0.7,0.53,1.28,1.23,1.3
		c0.02,0,0.05,0,0.07,0h15.19c0.7-0.02,1.25-0.6,1.23-1.3C29.06,38.07,28.52,37.53,27.84,37.52L27.84,37.52z"/>
</g>
</svg>
