<?xml version="1.0" encoding="utf-8"?>
<!-- Generator: Adobe Illustrator 25.0.0, SVG Export Plug-In . SVG Version: 6.00 Build 0)  -->
<svg version="1.1" id="Layer_1" xmlns="http://www.w3.org/2000/svg" xmlns:xlink="http://www.w3.org/1999/xlink" x="0px" y="0px"
	 viewBox="0 0 26 26" style="enable-background:new 0 0 26 26;" xml:space="preserve">
<style type="text/css">
	.st0{fill:#F16338;}
	.st1{fill:none;stroke:#F16338;stroke-width:2;stroke-linecap:round;stroke-linejoin:round;}
	.st2{fill:none;stroke:#FBFBFB;stroke-width:2;stroke-miterlimit:10;}
	.st3{opacity:0.5;fill:none;stroke:#FFFFFF;stroke-width:2;stroke-miterlimit:10;enable-background:new    ;}
	.st4{opacity:0.15;fill:none;stroke:#FFFFFF;stroke-width:2;stroke-miterlimit:10;enable-background:new    ;}
	.st5{fill:none;stroke:#F16338;}
	.st6{fill:none;stroke:#F16338;stroke-width:1.5;stroke-linecap:round;stroke-linejoin:round;}
	.st7{fill:#F16338;stroke:#F16338;stroke-width:0.5;}
</style>
<g id="Group_846" transform="translate(-768 -8081)">
	<g id="Group_791" transform="translate(768 8081)">
		<path id="Path_112" class="st0" d="M23.26,6.85c-0.54,0.26-0.76,0.91-0.5,1.45c0.71,1.47,1.08,3.08,1.07,4.71
			c0,5.98-4.85,10.83-10.83,10.83C7.01,23.84,2.17,18.99,2.17,13S7.02,2.17,13,2.17c2.44-0.01,4.81,0.81,6.72,2.33
			c0.47,0.37,1.15,0.29,1.52-0.18c0.37-0.47,0.29-1.15-0.18-1.52C15.44-1.65,7.27-0.7,2.81,4.93s-3.51,13.8,2.12,18.26
			s13.8,3.51,18.26-2.12c1.82-2.29,2.81-5.14,2.81-8.06c0.01-1.96-0.43-3.89-1.29-5.65C24.45,6.81,23.81,6.59,23.26,6.85
			C23.27,6.85,23.26,6.85,23.26,6.85z"/>
		<path id="Path_113" class="st0" d="M12.53,4.02c-0.67,0-1.21,0.54-1.21,1.21v8.51c0,0.67,0.54,1.21,1.21,1.21h6.08
			c0.67,0,1.21-0.54,1.21-1.21c0-0.67-0.54-1.22-1.21-1.22h-4.86V5.24C13.75,4.57,13.2,4.02,12.53,4.02z"/>
	</g>
</g>
</svg>
