<?xml version="1.0" encoding="utf-8"?>
<!-- Generator: Adobe Illustrator 25.0.0, SVG Export Plug-In . SVG Version: 6.00 Build 0)  -->
<svg version="1.1" id="Layer_1" xmlns="http://www.w3.org/2000/svg" xmlns:xlink="http://www.w3.org/1999/xlink" x="0px" y="0px"
	 viewBox="0 0 68.89 68.86" style="enable-background:new 0 0 68.89 68.86;" xml:space="preserve">
<style type="text/css">
	.st0{fill:#F16338;}
	.st1{fill:none;stroke:#F16338;stroke-width:2;stroke-linecap:round;stroke-linejoin:round;}
	.st2{fill:none;stroke:#FBFBFB;stroke-width:2;stroke-miterlimit:10;}
	.st3{opacity:0.5;fill:none;stroke:#FFFFFF;stroke-width:2;stroke-miterlimit:10;enable-background:new    ;}
	.st4{opacity:0.15;fill:none;stroke:#FFFFFF;stroke-width:2;stroke-miterlimit:10;enable-background:new    ;}
	.st5{fill:none;stroke:#F16338;}
	.st6{fill:none;stroke:#F16338;stroke-width:1.5;stroke-linecap:round;stroke-linejoin:round;}
	.st7{fill:#F16338;stroke:#F16338;stroke-width:0.5;}
</style>
<g>
	<path class="st0" d="M61.44,55.82c4.8-6.06,7.45-13.66,7.45-21.39c0.02-5.16-1.16-10.34-3.41-14.98c-0.17-0.36-0.48-0.63-0.85-0.76
		c-0.38-0.13-0.78-0.11-1.14,0.07l-0.66-1.35l0.66,1.35c-0.74,0.36-1.05,1.26-0.7,2c2.05,4.24,3.13,8.97,3.11,13.68
		c0,17.34-14.11,31.45-31.46,31.45S2.98,51.77,2.98,34.43S17.1,2.97,34.44,2.97c0.05,0,0.09,0,0.14,0c7.02,0,13.9,2.41,19.4,6.79
		c0.68,0.61,1.63,0.57,2.19-0.05c0.55-0.61,0.5-1.56-0.11-2.12c-0.04-0.04-0.09-0.08-0.15-0.12C49.55,2.44,41.97,0,34.45,0
		C24.28,0,14.22,4.47,7.44,13.03c-11.8,14.89-9.28,36.6,5.6,48.4C27.93,73.23,49.64,70.71,61.44,55.82z"/>
	<path class="st0" d="M35.01,12.95c0-1.02-0.83-1.86-1.86-1.86c-1.03,0-1.86,0.84-1.86,1.86v23.52c0,1.03,0.83,1.86,1.86,1.86h16.8
		c1.03,0,1.86-0.83,1.86-1.86s-0.83-1.86-1.86-1.86H35.01V12.95z"/>
</g>
</svg>
