<?xml version="1.0" encoding="utf-8"?>
<!-- Generator: Adobe Illustrator 25.0.0, SVG Export Plug-In . SVG Version: 6.00 Build 0)  -->
<svg version="1.1" id="Layer_1" xmlns="http://www.w3.org/2000/svg" xmlns:xlink="http://www.w3.org/1999/xlink" x="0px" y="0px"
	 viewBox="0 0 70.89 68.86" style="enable-background:new 0 0 70.89 68.86;" xml:space="preserve">
<style type="text/css">
	.st0{fill:#F16338;}
	.st1{fill:none;stroke:#F16338;stroke-width:2;stroke-linecap:round;stroke-linejoin:round;}
	.st2{fill:none;stroke:#FBFBFB;stroke-width:2;stroke-miterlimit:10;}
	.st3{opacity:0.5;fill:none;stroke:#FFFFFF;stroke-width:2;stroke-miterlimit:10;enable-background:new    ;}
	.st4{opacity:0.15;fill:none;stroke:#FFFFFF;stroke-width:2;stroke-miterlimit:10;enable-background:new    ;}
	.st5{fill:none;stroke:#F16338;}
	.st6{fill:none;stroke:#F16338;stroke-width:1.5;stroke-linecap:round;stroke-linejoin:round;}
	.st7{fill:#F16338;stroke:#F16338;stroke-width:0.5;}
</style>
<g id="Group_833" transform="translate(0 0.064)">
	<path id="Path_134" class="st0" d="M54.4,22.7c0.8,0,1.46,0.65,1.46,1.46c0.01,0.8-0.63,1.45-1.43,1.46c-0.01,0-0.02,0-0.03,0
		H20.02l-1.46-1.46l1.46-1.46H54.4z"/>
	<path id="Path_135" class="st0" d="M53.67,46.03h-2.8l1.46-1.46l-1.46-1.46h2.8c0.8,0,1.46,0.65,1.46,1.46
		c0.01,0.8-0.63,1.45-1.43,1.46C53.69,46.03,53.68,46.03,53.67,46.03z"/>
	<path id="Path_136" class="st0" d="M52.33,44.58l-1.46,1.46H16.49c-0.8,0.01-1.45-0.63-1.46-1.43c0-0.01,0-0.02,0-0.03
		c0-0.8,0.65-1.46,1.46-1.46h34.39L52.33,44.58z"/>
	<path id="Path_137" class="st0" d="M55.42,43.56c0.57,0.56,0.58,1.47,0.03,2.04c-0.01,0.01-0.02,0.02-0.03,0.03l-8.75,8.75
		c-0.57,0.56-1.49,0.56-2.06-0.01c-0.56-0.57-0.56-1.49,0.01-2.06l6.24-6.27h2.8c0.8,0.01,1.45-0.63,1.46-1.43c0-0.01,0-0.02,0-0.03
		c0-0.8-0.65-1.46-1.46-1.46h-2.8l-6.24-6.24c-0.57-0.56-0.58-1.47-0.03-2.04c0.01-0.01,0.02-0.02,0.03-0.03
		c0.57-0.55,1.47-0.55,2.04,0L55.42,43.56z"/>
	<path id="Path_138" class="st0" d="M20.01,22.7l-1.46,1.46l1.46,1.46h-2.8c-0.8,0.01-1.45-0.63-1.46-1.43c0-0.01,0-0.02,0-0.03
		c0-0.8,0.65-1.46,1.46-1.46L20.01,22.7z"/>
	<path id="Path_139" class="st0" d="M15.46,23.14l8.75-8.75c0.57-0.55,1.47-0.55,2.04,0c0.57,0.56,0.58,1.47,0.03,2.04
		c-0.01,0.01-0.02,0.02-0.03,0.03l-6.24,6.24h-2.8c-0.8,0-1.46,0.65-1.46,1.46c-0.01,0.8,0.63,1.45,1.43,1.46c0.01,0,0.02,0,0.03,0
		h2.8l6.24,6.27c0.57,0.56,0.58,1.48,0.01,2.06c-0.56,0.57-1.48,0.58-2.06,0.01l0,0l-8.75-8.75c-0.57-0.56-0.58-1.47-0.03-2.04
		C15.44,23.16,15.45,23.15,15.46,23.14L15.46,23.14z"/>
	<path id="Path_140" class="st0" d="M0.44,34.37c0-19.33,15.67-35,35-35s35,15.67,35,35s-15.67,35-35,35
		C16.12,69.34,0.47,53.69,0.44,34.37z M3.36,34.37c0,17.72,14.36,32.08,32.08,32.08s32.08-14.36,32.08-32.08S53.16,2.28,35.44,2.28
		C17.73,2.29,3.37,16.65,3.36,34.37z"/>
</g>
</svg>
