<?xml version="1.0" encoding="utf-8"?>
<!-- Generator: Adobe Illustrator 25.0.0, SVG Export Plug-In . SVG Version: 6.00 Build 0)  -->
<svg version="1.1" id="Layer_1" xmlns="http://www.w3.org/2000/svg" xmlns:xlink="http://www.w3.org/1999/xlink" x="0px" y="0px"
	 viewBox="0 0 60.5 60.5" style="enable-background:new 0 0 60.5 60.5;" xml:space="preserve">
<style type="text/css">
	.st0{fill:#F16338;}
	.st1{fill:none;stroke:#F16338;stroke-width:2;stroke-linecap:round;stroke-linejoin:round;}
	.st2{fill:none;stroke:#FBFBFB;stroke-width:2;stroke-miterlimit:10;}
	.st3{opacity:0.5;fill:none;stroke:#FFFFFF;stroke-width:2;stroke-miterlimit:10;enable-background:new    ;}
	.st4{opacity:0.15;fill:none;stroke:#FFFFFF;stroke-width:2;stroke-miterlimit:10;enable-background:new    ;}
	.st5{fill:none;stroke:#F16338;}
	.st6{fill:none;stroke:#F16338;stroke-width:1.5;stroke-linecap:round;stroke-linejoin:round;}
	.st7{fill:#F16338;stroke:#F16338;stroke-width:0.5;}
</style>
<g id="Group_825" transform="translate(0 0.911)">
	<g id="Group_824">
		<path id="Path_131" class="st0" d="M30.25-0.91C17.47-0.91,0,8.75,0,29.34c0,20.07,16.8,30.25,30.25,30.25
			c23.07,0,30.25-20.21,30.25-30.25C60.5,14.52,49.16-0.91,30.25-0.91z M23.24,1.93c-3.16,2.69-5.78,7.15-7.47,12.67
			c-2.21-1.31-4.22-2.92-5.99-4.78C13.44,5.99,18.1,3.26,23.24,1.93z M8.48,11.29c1.98,2.07,4.26,3.85,6.75,5.26
			c-0.97,3.86-1.49,7.83-1.55,11.81H1.98C2.19,22.11,4.48,16.1,8.48,11.29z M8.48,47.4c-4.01-4.81-6.3-10.82-6.5-17.08h11.7
			c0.05,3.98,0.57,7.95,1.55,11.81C12.75,43.56,10.47,45.33,8.48,47.4L8.48,47.4z M9.78,48.86c1.77-1.86,3.78-3.46,5.99-4.78
			c1.69,5.51,4.31,9.98,7.47,12.67C18.1,55.43,13.44,52.69,9.78,48.86L9.78,48.86z M29.28,57.57c-5.07-0.64-9.44-6.31-11.8-14.43
			c3.67-1.85,7.69-2.89,11.79-3.05L29.28,57.57L29.28,57.57z M29.28,38.16c-4.27,0.14-8.46,1.18-12.3,3.06
			c-0.84-3.57-1.29-7.23-1.35-10.9h13.64L29.28,38.16L29.28,38.16z M29.28,28.37H15.62c0.06-3.67,0.51-7.33,1.35-10.9
			c3.84,1.87,8.03,2.92,12.3,3.06L29.28,28.37z M29.28,18.59c-4.11-0.14-8.13-1.18-11.8-3.04C19.83,7.41,24.2,1.76,29.27,1.11
			L29.28,18.59z M52.02,11.29c4,4.81,6.29,10.82,6.5,17.08h-11.7c-0.05-3.99-0.57-7.95-1.54-11.82
			C47.76,15.12,50.03,13.35,52.02,11.29z M50.72,9.82c-1.77,1.86-3.78,3.46-5.99,4.78c-1.69-5.51-4.31-9.97-7.47-12.67
			C42.4,3.26,47.06,5.99,50.72,9.82L50.72,9.82z M31.22,1.12c5.07,0.64,9.44,6.31,11.8,14.43c-3.67,1.85-7.69,2.89-11.8,3.04V1.12z
			 M31.22,20.53c4.27-0.14,8.46-1.18,12.3-3.06c0.84,3.57,1.29,7.23,1.35,10.9H31.23L31.22,20.53z M31.22,30.32h13.65
			c-0.06,3.67-0.51,7.33-1.35,10.9c-3.83-1.89-8.03-2.93-12.3-3.06L31.22,30.32z M31.22,57.57V40.09c4.11,0.14,8.13,1.18,11.8,3.04
			C40.67,51.26,36.3,56.92,31.22,57.57L31.22,57.57z M37.26,56.75c3.16-2.69,5.78-7.15,7.47-12.67c2.21,1.31,4.22,2.92,5.99,4.78
			C47.06,52.69,42.4,55.42,37.26,56.75L37.26,56.75z M52.02,47.39c-1.99-2.07-4.26-3.84-6.74-5.26c0.97-3.86,1.49-7.83,1.55-11.81
			h11.7C58.32,36.57,56.03,42.58,52.02,47.39z"/>
	</g>
</g>
</svg>
