<?xml version="1.0" encoding="utf-8"?>
<!-- Generator: Adobe Illustrator 25.0.0, SVG Export Plug-In . SVG Version: 6.00 Build 0)  -->
<svg version="1.1" id="Layer_1" xmlns="http://www.w3.org/2000/svg" xmlns:xlink="http://www.w3.org/1999/xlink" x="0px" y="0px"
	 viewBox="0 0 28.33 28.33" style="enable-background:new 0 0 28.33 28.33;" xml:space="preserve">
<style type="text/css">
	.st0{fill:#F16338;}
	.st1{fill:none;stroke:#F16338;stroke-width:2;stroke-linecap:round;stroke-linejoin:round;}
	.st2{fill:none;stroke:#FBFBFB;stroke-width:2;stroke-miterlimit:10;}
	.st3{opacity:0.5;fill:none;stroke:#FFFFFF;stroke-width:2;stroke-miterlimit:10;enable-background:new    ;}
	.st4{opacity:0.15;fill:none;stroke:#FFFFFF;stroke-width:2;stroke-miterlimit:10;enable-background:new    ;}
	.st5{fill:none;stroke:#F16338;}
	.st6{fill:none;stroke:#F16338;stroke-width:1.5;stroke-linecap:round;stroke-linejoin:round;}
	.st7{fill:#F16338;stroke:#F16338;stroke-width:0.5;}
</style>
<g>
	<path id="Path_97" class="st0" d="M14.16,28.33C6.34,28.33,0,21.99,0,14.16C0,10.41,1.49,6.8,4.15,4.15
		c5.53-5.53,14.5-5.53,20.03,0s5.53,14.5,0,20.03l0,0C21.53,26.84,17.92,28.34,14.16,28.33L14.16,28.33z M14.16,1.77
		c-6.85,0-12.39,5.55-12.39,12.39s5.55,12.39,12.39,12.39s12.39-5.55,12.39-12.39C26.55,7.32,21,1.78,14.16,1.77L14.16,1.77z"/>
	<path id="Path_98" class="st0" d="M14.16,13.33c-1.14-0.19-1.92-1.27-1.73-2.42c0.19-1.14,1.27-1.92,2.42-1.73
		c1.01,0.17,1.75,1.04,1.75,2.07c0.09,0.54,0.6,0.91,1.14,0.82c0.42-0.07,0.75-0.4,0.82-0.82c-0.13-1.87-1.56-3.4-3.42-3.64V6.7
		c-0.09-0.54-0.6-0.91-1.14-0.82c-0.42,0.07-0.75,0.4-0.82,0.82v0.92c-1.86,0.24-3.3,1.76-3.42,3.64c0,2.06,1.97,3.73,4.4,3.73
		c1.14,0.19,1.92,1.27,1.73,2.42c-0.19,1.14-1.27,1.92-2.42,1.73c-1.01-0.17-1.75-1.04-1.75-2.07c-0.09-0.54-0.6-0.91-1.14-0.82
		c-0.42,0.07-0.75,0.4-0.82,0.82c0.13,1.87,1.56,3.4,3.42,3.64v0.92c0.09,0.54,0.6,0.91,1.14,0.82c0.42-0.07,0.75-0.4,0.82-0.82
		v-0.92c1.86-0.24,3.3-1.76,3.42-3.64C18.56,15.01,16.59,13.33,14.16,13.33z"/>
</g>
</svg>
