<svg id="Layer_1" data-name="Layer 1" xmlns="http://www.w3.org/2000/svg" viewBox="0 0 23.15 15.92"><defs><style>.cls-1{fill:#b7bac6;}</style></defs><path id="Path_108" data-name="Path 108" class="cls-1" d="M21.07,15.92h-19A2.09,2.09,0,0,1,0,13.83V2.08A2.08,2.08,0,0,1,2.08,0h19a2.08,2.08,0,0,1,2.08,2.08V13.83A2.09,2.09,0,0,1,21.07,15.92ZM2.08,1.45a.63.63,0,0,0-.63.63V13.83a.64.64,0,0,0,.63.64h19a.64.64,0,0,0,.63-.64V2.08a.63.63,0,0,0-.63-.63Z"/><path id="Path_109" data-name="Path 109" class="cls-1" d="M16.53,10a.72.72,0,0,1-.72-.72A.75.75,0,0,1,16,8.85a1.46,1.46,0,0,0,0-1.79.72.72,0,1,1,1.13-.9,2.88,2.88,0,0,1,0,3.58.71.71,0,0,1-.57.28Z"/><path id="Path_110" data-name="Path 110" class="cls-1" d="M18.33,11.83a.73.73,0,0,1-.72-.73.7.7,0,0,1,.18-.48,4,4,0,0,0,0-5.31.74.74,0,0,1,.06-1,.73.73,0,0,1,1,.06,5.42,5.42,0,0,1,0,7.24.7.7,0,0,1-.54.24Z"/><path id="Path_111" data-name="Path 111" class="cls-1" d="M5.61,8H4.52A1.64,1.64,0,0,1,2.89,6.33V5.24A1.63,1.63,0,0,1,4.52,3.62H5.61A1.62,1.62,0,0,1,7.23,5.25V6.33A1.62,1.62,0,0,1,5.61,8ZM4.52,5.06a.18.18,0,0,0-.18.18V6.33a.18.18,0,0,0,.18.18H5.61a.18.18,0,0,0,.18-.18V5.24a.18.18,0,0,0-.18-.18Z"/></svg>