<svg id="Layer_1" data-name="Layer 1" xmlns="http://www.w3.org/2000/svg" viewBox="0 0 21 21"><defs><style>.cls-1{fill:#b7bac6;}</style></defs><path id="Path_97" data-name="Path 97" class="cls-1" d="M10.5,21a10.5,10.5,0,1,1,7.43-3.07A10.5,10.5,0,0,1,10.5,21Zm0-19.69a9.19,9.19,0,1,0,9.19,9.19A9.2,9.2,0,0,0,10.5,1.31Z"/><path id="Path_98" data-name="Path 98" class="cls-1" d="M10.5,9.89a1.56,1.56,0,1,1,1.81-1.54.74.74,0,0,0,.85.6.72.72,0,0,0,.6-.6,2.91,2.91,0,0,0-2.54-2.7V5a.73.73,0,0,0-.84-.61A.76.76,0,0,0,9.77,5v.68a2.91,2.91,0,0,0-2.53,2.7,3.05,3.05,0,0,0,3.26,2.77,1.56,1.56,0,1,1-1.81,1.53.74.74,0,0,0-.85-.6.72.72,0,0,0-.6.6,2.9,2.9,0,0,0,2.54,2.7V16a.72.72,0,0,0,.84.6.74.74,0,0,0,.61-.6v-.69a2.91,2.91,0,0,0,2.53-2.7A3,3,0,0,0,10.5,9.89Z"/></svg>