<svg id="Layer_1" data-name="Layer 1" xmlns="http://www.w3.org/2000/svg" viewBox="0 0 17.9 17.84"><defs><style>.cls-1{fill:#b7bac6;}</style></defs><g id="Group_717" data-name="Group 717"><g id="Group_716" data-name="Group 716"><path id="Path_112" data-name="Path 112" class="cls-1" d="M8.92,16.36H2.23a.75.75,0,0,1-.74-.75V2.23a.74.74,0,0,1,.74-.74H8.92A.75.75,0,0,0,9.64.72.75.75,0,0,0,8.92,0H2.23A2.23,2.23,0,0,0,0,2.23V15.61a2.23,2.23,0,0,0,2.23,2.23H8.92a.75.75,0,0,0,.75-.74.76.76,0,0,0-.75-.75Z"/></g></g><g id="Group_719" data-name="Group 719"><g id="Group_718" data-name="Group 718"><path id="Path_113" data-name="Path 113" class="cls-1" d="M17.68,8.39,13.16,3.93a.74.74,0,0,0-1,1.06h0l3.23,3.19H6.69a.74.74,0,1,0,0,1.48h8.66l-3.23,3.19a.74.74,0,0,0,0,1.05.73.73,0,0,0,1.05,0h0l4.52-4.46a.74.74,0,0,0,0-1Z"/></g></g></svg>