<svg id="Layer_1" data-name="Layer 1" xmlns="http://www.w3.org/2000/svg" viewBox="0 0 19.32 22.07"><defs><style>.cls-1{fill:#b7bac6;}</style></defs><path id="Path_99" data-name="Path 99" class="cls-1" d="M18.57,10.73a.75.75,0,0,0-.74.75.74.74,0,0,0,.74.74.75.75,0,1,0,0-1.49Z"/><path id="Path_100" data-name="Path 100" class="cls-1" d="M19.32,16.18v-2.1a.75.75,0,0,0-.75-.74.74.74,0,0,0-.74.74v1.68L10.4,20.05V11.47l7.43-4.29V8.76a.74.74,0,1,0,1.48,0V5.89a.74.74,0,0,0-.37-.64L10,.1a.75.75,0,0,0-.74,0L.37,5.25A.73.73,0,0,0,0,5.89V16.18a.76.76,0,0,0,.37.65L9.29,22A.7.7,0,0,0,10,22l8.91-5.14A.75.75,0,0,0,19.32,16.18ZM9.66,1.6l7.43,4.29L9.66,10.18,2.23,5.89ZM1.49,7.18l7.43,4.28V20L1.49,15.75Z"/></svg>