<svg id="Layer_1" data-name="Layer 1" xmlns="http://www.w3.org/2000/svg" viewBox="0 0 16.14 24.68"><defs><style>.cls-1{fill:#b7bac6;}</style></defs><path id="Path_106" data-name="Path 106" class="cls-1" d="M14.75,3.55A8.18,8.18,0,0,0,12,1,7.89,7.89,0,0,0,8.07,0,8.07,8.07,0,0,0,0,8.07V18.9H1.93v.91a4.86,4.86,0,0,0,9.37,1.82l4.25-10.55a8,8,0,0,0-.8-7.53ZM1.45,9.75H3.5a3.85,3.85,0,1,1,.18,7.7H1.45ZM4.34,8.07A3.74,3.74,0,0,1,4.78,6.3H4.9A2.93,2.93,0,0,1,7.83,9.22a2.85,2.85,0,0,1-.21,1.08A5.3,5.3,0,0,0,4.34,8.37Zm9.87,2.47L10,21.09a3.42,3.42,0,0,1-6.59-1.28V18.9H3.5a5.29,5.29,0,0,0,5.29-5.31,5.16,5.16,0,0,0-.33-1.83,4.38,4.38,0,0,0-1-6.1A4.33,4.33,0,0,0,6,5a3.73,3.73,0,0,1,5.55,4.48l-1.27,3.15,1.35.54L12.86,10a5.17,5.17,0,1,0-10-1.93v.24H1.45V8.07a6.64,6.64,0,0,1,9.8-5.82,6.7,6.7,0,0,1,3.4,5,6.59,6.59,0,0,1-.44,3.26Z"/></svg>