<svg id="Layer_1" data-name="Layer 1" xmlns="http://www.w3.org/2000/svg" viewBox="0 0 13.2 23.47"><defs><style>.cls-1{fill:#b7bac6;}</style></defs><path id="Path_101" data-name="Path 101" class="cls-1" d="M11.09,23.47h-9A2.11,2.11,0,0,1,0,21.36V5A2.11,2.11,0,0,1,2.11,2.93h9A2.11,2.11,0,0,1,13.2,5V21.36A2.11,2.11,0,0,1,11.09,23.47ZM2.11,4.4A.64.64,0,0,0,1.47,5V21.36a.64.64,0,0,0,.64.64h9a.64.64,0,0,0,.64-.64V5a.64.64,0,0,0-.64-.64Z"/><path id="Path_102" data-name="Path 102" class="cls-1" d="M9.53,4.4H3.67a.74.74,0,0,1-.74-.73h0v-2A1.65,1.65,0,0,1,4.58,0h4a1.65,1.65,0,0,1,1.65,1.65v2a.74.74,0,0,1-.74.73ZM4.4,2.93H8.8V1.65a.18.18,0,0,0-.18-.18h-4a.18.18,0,0,0-.18.18Z"/><path id="Path_103" data-name="Path 103" class="cls-1" d="M9.53,20.9H3.67a.74.74,0,1,1,0-1.47H9.53a.74.74,0,1,1,0,1.47Z"/><path id="Path_104" data-name="Path 104" class="cls-1" d="M9.53,18H3.67a.74.74,0,1,1,0-1.47H9.53a.74.74,0,1,1,0,1.47Z"/><path id="Path_105" data-name="Path 105" class="cls-1" d="M9.53,15H3.67a.73.73,0,1,1,0-1.46H9.53a.73.73,0,1,1,0,1.46Z"/></svg>