<svg id="Layer_1" data-name="Layer 1" xmlns="http://www.w3.org/2000/svg" viewBox="0 0 17.29 17.3"><defs><style>.cls-1{fill:#b7bac6;}</style></defs><path id="Path_88" data-name="Path 88" class="cls-1" d="M14.76,11.18a8.77,8.77,0,0,0-3.29-2.06,5,5,0,1,0-7-1.29,4.83,4.83,0,0,0,1.3,1.29A8.66,8.66,0,0,0,0,17.3H1.35a7.3,7.3,0,1,1,14.59,0h1.35A8.65,8.65,0,0,0,14.76,11.18ZM8.64,8.65A3.65,3.65,0,1,1,12.29,5h0A3.65,3.65,0,0,1,8.64,8.65Z"/><path id="Path_88-2" data-name="Path 88-2" class="cls-1" d="M14.76,11.18a8.77,8.77,0,0,0-3.29-2.06,5,5,0,1,0-7-1.29,4.83,4.83,0,0,0,1.3,1.29A8.66,8.66,0,0,0,0,17.3H1.35a7.3,7.3,0,1,1,14.59,0h1.35A8.65,8.65,0,0,0,14.76,11.18ZM8.64,8.65A3.65,3.65,0,1,1,12.29,5h0A3.65,3.65,0,0,1,8.64,8.65Z"/></svg>