<svg id="Layer_1" data-name="Layer 1" xmlns="http://www.w3.org/2000/svg" viewBox="0 0 16.17 23"><defs><style>.cls-1{fill:#b7bac6;}</style></defs><g id="Group_686" data-name="Group 686"><g id="Group_685" data-name="Group 685"><path id="Path_89" data-name="Path 89" class="cls-1" d="M8.09,0A8.09,8.09,0,0,0,1.21,12.34L7.63,22.68A.67.67,0,0,0,8.2,23h0a.66.66,0,0,0,.57-.33L15,12.23A8.09,8.09,0,0,0,8.09,0Zm5.79,11.54L8.19,21l-5.84-9.4a6.74,6.74,0,1,1,11.52-.09Z"/></g></g><g id="Group_688" data-name="Group 688"><g id="Group_687" data-name="Group 687"><path id="Path_90" data-name="Path 90" class="cls-1" d="M8.09,4.23a3.7,3.7,0,1,0,3.69,3.7h0A3.72,3.72,0,0,0,8.09,4.23Zm0,6.17a2.47,2.47,0,1,1,2.46-2.48h0A2.47,2.47,0,0,1,8.09,10.4Z"/></g></g></svg>