<svg id="Layer_1" data-name="Layer 1" xmlns="http://www.w3.org/2000/svg" viewBox="0 0 19.2 18"><defs><style>.cls-1{fill:#b7bac6;}</style></defs><path id="Path_94" data-name="Path 94" class="cls-1" d="M16.73,0H2.47A2.48,2.48,0,0,0,0,2.48V15.53A2.48,2.48,0,0,0,2.47,18H15a2.76,2.76,0,0,0,2-.81l1.43-1.43a2.76,2.76,0,0,0,.81-2V2.48A2.48,2.48,0,0,0,16.73,0ZM2.47,1.2H16.73A1.27,1.27,0,0,1,18,2.48V4.2H1.2V2.48A1.27,1.27,0,0,1,2.47,1.2ZM1.2,15.52V5.4H18v7.8H16.12a1.72,1.72,0,0,0-1.72,1.72V16.8H2.47A1.27,1.27,0,0,1,1.2,15.52Zm16.34-.61-1.43,1.43a1.47,1.47,0,0,1-.51.34V14.92a.53.53,0,0,1,.53-.52h1.75A1.47,1.47,0,0,1,17.54,14.91Z"/><path id="Path_95" data-name="Path 95" class="cls-1" d="M15,7.8a.6.6,0,0,0-.6-.6H4.8a.6.6,0,0,0,0,1.2h9.6A.6.6,0,0,0,15,7.8Z"/><path id="Path_96" data-name="Path 96" class="cls-1" d="M13.2,10.2H6a.6.6,0,0,0,0,1.2h7.2a.6.6,0,1,0,0-1.2Z"/></svg>