<svg id="Layer_1" data-name="Layer 1" xmlns="http://www.w3.org/2000/svg" viewBox="0 0 45.34 45.34"><defs><style>.cls-1{fill:#f16338;}.cls-2{fill:#fff;}</style></defs><g id="Group_676" data-name="Group 676"><circle id="Ellipse_92" data-name="Ellipse 92" class="cls-1" cx="22.67" cy="22.67" r="22.67"/><g id="Group_675" data-name="Group 675"><circle id="Ellipse_93" data-name="Ellipse 93" class="cls-2" cx="32.5" cy="29.82" r="2.79"/><g id="Group_674" data-name="Group 674"><path id="Path_106" data-name="Path 106" class="cls-2" d="M29.18,18.31h0a2.5,2.5,0,0,0-3.41.91l-.56,1A1.87,1.87,0,1,1,22,18.31v0L25.5,12.2a2.5,2.5,0,0,0-.9-3.42h0a2.5,2.5,0,0,0-3.42.91h0L10,28.93a2.5,2.5,0,0,0,.91,3.42h0a2.5,2.5,0,0,0,3.42-.91h0l4.68-8a1.88,1.88,0,0,1,3.25,1.88l-2.12,3.65a2.5,2.5,0,0,0,.9,3.42h0a2.5,2.5,0,0,0,3.42-.91h0l3-5.15,1.22-2.1,1.43-2.46A2.5,2.5,0,0,0,29.18,18.31Z"/></g></g></g></svg>