<?xml version="1.0" encoding="utf-8"?>
<!-- Generator: Adobe Illustrator 24.3.0, SVG Export Plug-In . SVG Version: 6.00 Build 0)  -->
<svg version="1.1" id="Layer_1" xmlns="http://www.w3.org/2000/svg" xmlns:xlink="http://www.w3.org/1999/xlink" x="0px" y="0px"
	 viewBox="0 0 104.44 80.14" style="enable-background:new 0 0 104.44 80.14;" xml:space="preserve">
<style type="text/css">
	.st0{fill:none;stroke:#F16338;stroke-width:2;stroke-miterlimit:10;}
	.st1{opacity:0.5;fill:none;stroke:#FFFFFF;stroke-width:2;stroke-miterlimit:10;enable-background:new    ;}
	.st2{opacity:0.15;fill:none;stroke:#FFFFFF;stroke-width:2.971;stroke-miterlimit:10;enable-background:new    ;}
	.st3{fill:#F16338;}
	.st4{fill:#FFFFFF;stroke:#FFFFFF;stroke-miterlimit:10;}
	.st5{fill:#FFFFFF;}
	.st6{fill:#F16338;stroke:#F16338;stroke-miterlimit:10;}
	.st7{fill:#FFFFFF;stroke:#DEDEDE;}
</style>
<g id="Group_608" transform="matrix(0.891, -0.454, 0.454, 0.891, -20.657, 12.169)">
	<g id="Group_603" transform="translate(0 45.5)">
		<g id="Group_602" transform="translate(0 0)">
			<path id="Path_75" class="st3" d="M112.16,3.34C83.04-28.05,33.99-29.89,2.61-0.77C1.18,0.55-0.19,1.92-1.5,3.34
				c-1.71,1.83-1.61,4.7,0.23,6.41s4.7,1.61,6.41-0.23l0,0c25.7-27.72,69.01-29.36,96.74-3.66c1.27,1.17,2.49,2.4,3.66,3.66
				c1.71,1.83,4.58,1.93,6.41,0.23C113.77,8.04,113.88,5.17,112.16,3.34L112.16,3.34L112.16,3.34z"/>
		</g>
	</g>
	<g id="Group_605" transform="translate(16.553 71.815)">
		<g id="Group_604">
			<path id="Path_76" class="st3" d="M78.96-4.24c-11.02-11.1-25.29-17.21-40.18-17.21S9.61-15.34-1.41-4.24
				c-1.76,1.78-1.75,4.65,0.03,6.41C0.4,3.93,3.27,3.92,5.03,2.14l0,0c9.3-9.37,21.28-14.53,33.74-14.53S63.22-7.23,72.52,2.14
				c1.76,1.78,4.64,1.79,6.41,0.02S80.72-2.47,78.96-4.24L78.96-4.24L78.96-4.24z"/>
		</g>
	</g>
	<g id="Group_607" transform="translate(34.258 98.336)">
		<g id="Group_606">
			<path id="Path_77" class="st3" d="M43.1-11.98c-5.9-5.85-14.36-9.48-22.07-9.48h-0.33c-7.71,0-16.17,3.63-22.07,9.48
				c-1.78,1.76-1.79,4.63-0.03,6.41s4.63,1.79,6.41,0.03c4.2-4.16,10.36-6.85,15.69-6.85h0.33c5.33,0,11.49,2.69,15.69,6.85
				c1.78,1.76,4.65,1.75,6.41-0.03S44.88-10.22,43.1-11.98L43.1-11.98z"/>
		</g>
	</g>
</g>
</svg>
