<?xml version="1.0" encoding="utf-8"?>
<!-- Generator: Adobe Illustrator 24.3.0, SVG Export Plug-In . SVG Version: 6.00 Build 0)  -->
<svg version="1.1" id="Layer_1" xmlns="http://www.w3.org/2000/svg" xmlns:xlink="http://www.w3.org/1999/xlink" x="0px" y="0px"
	 viewBox="0 0 29.97 29.5" style="enable-background:new 0 0 29.97 29.5;" xml:space="preserve">
<style type="text/css">
	.st0{fill:none;stroke:#F16338;stroke-width:2;stroke-miterlimit:10;}
	.st1{opacity:0.5;fill:none;stroke:#FFFFFF;stroke-width:2;stroke-miterlimit:10;enable-background:new    ;}
	.st2{opacity:0.15;fill:none;stroke:#FFFFFF;stroke-width:2.971;stroke-miterlimit:10;enable-background:new    ;}
	.st3{fill:#F16338;}
	.st4{fill:#FFFFFF;stroke:#FFFFFF;stroke-miterlimit:10;}
	.st5{fill:#FFFFFF;}
	.st6{fill:#F16338;stroke:#F16338;stroke-miterlimit:10;}
	.st7{fill:#FFFFFF;stroke:#DEDEDE;}
</style>
<g id="Group_616" transform="translate(-362.681 -778.139)">
	<path id="Path_81" class="st3" d="M377.67,778.14c8.21-0.06,14.92,6.54,14.99,14.75c-0.07,8.21-6.77,14.81-14.99,14.75
		c-8.21,0.06-14.92-6.54-14.98-14.75C362.75,784.68,369.46,778.08,377.67,778.14z"/>
	<g id="Group_522">
		<g id="Group_521">
			<path id="Path_58" class="st4" d="M381.58,792.58l-5.21-5.21c-0.17-0.16-0.45-0.16-0.61,0.02c-0.16,0.17-0.16,0.43,0,0.6l4.9,4.9
				l-4.9,4.9c-0.16,0.17-0.16,0.45,0.02,0.61c0.17,0.16,0.43,0.16,0.6,0l5.21-5.21C381.75,793.03,381.75,792.75,381.58,792.58
				C381.58,792.58,381.58,792.58,381.58,792.58z"/>
		</g>
	</g>
</g>
</svg>
