<?xml version="1.0" encoding="utf-8"?>
<!-- Generator: Adobe Illustrator 24.3.0, SVG Export Plug-In . SVG Version: 6.00 Build 0)  -->
<svg version="1.1" id="Layer_1" xmlns="http://www.w3.org/2000/svg" xmlns:xlink="http://www.w3.org/1999/xlink" x="0px" y="0px"
	 viewBox="0 0 110.96 110.96" style="enable-background:new 0 0 110.96 110.96;" xml:space="preserve">
<style type="text/css">
	.st0{fill:none;stroke:#F16338;stroke-width:2;stroke-miterlimit:10;}
	.st1{opacity:0.5;fill:none;stroke:#FFFFFF;stroke-width:2;stroke-miterlimit:10;enable-background:new    ;}
	.st2{opacity:0.15;fill:none;stroke:#FFFFFF;stroke-width:2.971;stroke-miterlimit:10;enable-background:new    ;}
	.st3{fill:#F16338;}
	.st4{fill:#FFFFFF;stroke:#FFFFFF;stroke-miterlimit:10;}
	.st5{fill:#FFFFFF;}
	.st6{fill:#F16338;stroke:#F16338;stroke-miterlimit:10;}
	.st7{fill:#FFFFFF;stroke:#DEDEDE;}
</style>
<g id="Group_581" transform="translate(-1346 -2922.708)">
	<path class="st3" d="M1401.48,2922.71c-30.64,0-55.48,24.84-55.48,55.48s24.84,55.48,55.48,55.48c30.64,0,55.48-24.84,55.48-55.48
		C1456.92,2947.56,1432.1,2922.74,1401.48,2922.71z"/>
	<path id="Path_73" class="st5" d="M1423.11,2972.63l-23.67,23.67c-2.08,2.08-5.45,2.08-7.53,0c0,0,0,0,0,0l-12.06-12.06
		c-2.08-2.08-2.08-5.45,0-7.53c2.08-2.08,5.45-2.08,7.53,0l8.3,8.3l19.9-19.9c2.08-2.08,5.45-2.08,7.54,0
		C1425.2,2967.18,1425.2,2970.55,1423.11,2972.63L1423.11,2972.63z"/>
</g>
</svg>
